<svg width="24" height="24" viewBox="0 0 24 24" xmlns="http://www.w3.org/2000/svg">
<path d="M16.75 13.5V14.75H7.25V13.5C7.25 12.91 7.41 12.75 8 12.75H16C16.59 12.75 16.75 12.91 16.75 13.5ZM7.25 16.25V17.75H16.75V16.25H7.25ZM7.25 20.7C7.25 20.866 7.38405 21 7.55005 21H16.45C16.616 21 16.75 20.866 16.75 20.7V19.25H7.25V20.7Z"/>
<path opacity="0.4" d="M21 8.59003V19.4999C21 20.3279 20.328 20.9999 19.5 20.9999H18.55C18.384 20.9999 18.25 20.8659 18.25 20.6999V13.4999C18.25 12.2569 17.243 11.2499 16 11.2499H8C6.757 11.2499 5.75 12.2569 5.75 13.4999V20.6999C5.75 20.8659 5.61595 20.9999 5.44995 20.9999H4.5C3.672 20.9999 3 20.3279 3 19.4999V8.59003C3 8.04003 3.29002 7.53996 3.77002 7.26996L11.03 3.24994C11.63 2.91994 12.37 2.91994 12.97 3.24994L20.23 7.26996C20.7 7.53996 21 8.04003 21 8.59003Z" />
<path d="M13.5 8.75H10.5C10.086 8.75 9.75 8.414 9.75 8C9.75 7.586 10.086 7.25 10.5 7.25H13.5C13.914 7.25 14.25 7.586 14.25 8C14.25 8.414 13.914 8.75 13.5 8.75Z" />
</svg>
