<svg width="14" height="14" viewBox="0 0 14 14" xmlns="http://www.w3.org/2000/svg">
<path d="M1.60449 5.25033C1.60449 3.51982 2.80563 2.07371 4.42094 1.69896L4.26267 1.96273C4.13836 2.16992 4.20554 2.43866 4.41273 2.56298C4.61993 2.68729 4.88866 2.62011 5.01298 2.41292L5.62548 1.39208C5.70657 1.25693 5.7087 1.0886 5.63104 0.951436C5.55338 0.814276 5.40795 0.729492 5.25033 0.729492C2.7512 0.729492 0.729492 2.7512 0.729492 5.25033C0.729492 5.49195 0.925368 5.68783 1.16699 5.68783C1.40862 5.68783 1.60449 5.49195 1.60449 5.25033Z"/>
<path d="M13.2712 8.75033C13.2712 8.5087 13.0753 8.31283 12.8337 8.31283C12.592 8.31283 12.3962 8.5087 12.3962 8.75033C12.3962 10.4808 11.195 11.9269 9.57971 12.3017L9.73798 12.0379C9.86229 11.8307 9.79511 11.562 9.58792 11.4377C9.38073 11.3134 9.11199 11.3805 8.98767 11.5877L8.37517 12.6086C8.29408 12.7437 8.29195 12.9121 8.36961 13.0492C8.44727 13.1864 8.59271 13.2712 8.75033 13.2712C11.2495 13.2712 13.2712 11.2495 13.2712 8.75033Z" />
<path fill-rule="evenodd" clip-rule="evenodd" d="M10.3129 0.729492C10.5624 0.729492 10.8367 0.77974 11.0667 0.905989L11.0682 0.906817L12.467 1.68199C12.7136 1.81688 12.9096 2.03699 13.0427 2.26409C13.1761 2.49172 13.2711 2.76877 13.2711 3.0453V4.52699C13.2711 4.80549 13.1733 5.08308 13.0398 5.30935C12.9063 5.53563 12.7109 5.75484 12.4686 5.88942L11.0692 6.66492L11.0686 6.66529C10.8364 6.79459 10.5605 6.8472 10.3085 6.8472C10.0577 6.8472 9.78216 6.79499 9.55138 6.66446L8.15436 5.89027C7.90788 5.75538 7.71188 5.53528 7.5788 5.3082C7.44539 5.08056 7.35031 4.80351 7.35031 4.52699V3.0453C7.35031 2.76679 7.44812 2.48921 7.58166 2.26294C7.7152 2.03665 7.91059 1.81744 8.15284 1.68286L9.55788 0.904258C9.78889 0.779867 10.063 0.729492 10.3129 0.729492ZM8.22531 4.52699V3.23629L9.87612 4.19029V5.84404L8.57738 5.1243L8.57481 5.1229C8.50114 5.08272 8.4089 4.99407 8.3337 4.86577C8.25857 4.73757 8.22531 4.61213 8.22531 4.52699ZM12.0437 5.12454L10.7511 5.84084V4.18951L12.3961 3.2334V4.52699C12.3961 4.61015 12.3627 4.73506 12.2862 4.86462C12.2098 4.99408 12.1164 5.08408 12.0437 5.12454ZM10.6456 1.673L12.0247 2.43724L10.3129 3.43213L8.59401 2.43875L9.97458 1.67371C10.0471 1.63523 10.1689 1.60449 10.3129 1.60449C10.4582 1.60449 10.5774 1.63573 10.645 1.67268L10.6456 1.673Z" />
<path fill-rule="evenodd" clip-rule="evenodd" d="M4.44274 7.32095C4.21173 7.19656 3.93765 7.14616 3.68772 7.14616C3.43822 7.14616 3.16389 7.1964 2.93394 7.32265L1.53203 8.09955C1.28979 8.23413 1.0944 8.45331 0.960851 8.67959C0.827308 8.90585 0.729492 9.18342 0.729492 9.46193V10.9437C0.729492 11.2202 0.824569 11.4972 0.95798 11.7249C1.09107 11.952 1.28706 12.1721 1.53354 12.3069L2.93056 13.0811C3.16134 13.2117 3.43683 13.2639 3.68772 13.2639C3.93966 13.2639 4.21562 13.2112 4.44781 13.0819L4.44841 13.0816L5.84779 12.3061C6.09005 12.1715 6.28543 11.9523 6.41898 11.726C6.55252 11.4997 6.65033 11.2222 6.65033 10.9437V9.46193C6.65033 9.18541 6.55525 8.90836 6.42183 8.68074C6.28874 8.45365 6.09273 8.23357 5.84625 8.09869L4.4474 7.32346L4.44274 7.32095ZM1.60449 9.65363V10.9437C1.60449 11.0288 1.63775 11.1542 1.71288 11.2824C1.78808 11.4107 1.88033 11.4994 1.954 11.5396L1.95657 11.541L3.24946 12.2575V10.6066L1.60449 9.65363ZM4.12446 12.2607L5.42286 11.5412C5.49559 11.5008 5.58898 11.4108 5.66542 11.2813C5.74188 11.1517 5.77533 11.0268 5.77533 10.9437V9.64949L4.12446 10.6065V12.2607ZM5.40343 8.85368L4.02606 8.09038C3.9535 8.0519 3.83176 8.02116 3.68772 8.02116C3.54243 8.02116 3.42328 8.0524 3.35563 8.08934L1.9727 8.85572L3.6869 9.84879L5.40343 8.85368Z" />
</svg>
