<svg width="24" height="24" viewBox="0 0 24 24" xmlns="http://www.w3.org/2000/svg">
<path d="M21.238 9.83819C20.726 6.18319 17.817 3.27314 14.162 2.76214C13.816 2.71314 13.453 2.82023 13.182 3.05523C12.908 3.29423 12.75 3.63817 12.75 4.00017V10.0082C12.75 10.6932 13.308 11.2502 13.992 11.2502H20C20.361 11.2502 20.706 11.0931 20.944 10.8191C21.18 10.5481 21.287 10.1902 21.238 9.83819Z" fill="#25314C"/>
<path opacity="0.4" d="M18.9813 13.6029C18.7503 13.3199 18.4083 13.1568 18.0433 13.1568H12.0922C11.4032 13.1568 10.8422 12.5958 10.8422 11.9068V5.95591C10.8422 5.59191 10.6802 5.2498 10.3972 5.0178C10.1232 4.7938 9.76723 4.70481 9.42523 4.77281C7.27323 5.20581 5.33925 6.51081 4.12225 8.35581C2.89125 10.2208 2.46926 12.4789 2.93426 14.7119C3.58926 17.8559 6.14223 20.4078 9.28723 21.0638C9.88023 21.1878 10.4753 21.2489 11.0643 21.2489C12.6923 21.2489 14.2733 20.7819 15.6423 19.8779C17.4873 18.6599 18.7922 16.7268 19.2252 14.5748C19.2962 14.2318 19.2073 13.8769 18.9813 13.6029Z" fill="#25314C"/>
</svg>
