<svg width="25" height="24" viewBox="0 0 25 24" xmlns="http://www.w3.org/2000/svg">
<path d="M21.4031 13.468L19.948 5.46411C19.688 4.03711 18.5001 3.00098 16.9961 3.00098H8.00391C6.49991 3.00098 5.312 4.03811 5.052 5.46411L3.59595 13.468C3.53195 13.822 3.49902 14.181 3.49902 14.541V16C3.49902 14 4.49902 13 6.49902 13H18.499C20.499 13 21.499 14 21.499 16V14.541C21.5 14.181 21.4681 13.822 21.4031 13.468Z" />
<path opacity="0.4" d="M18.5 13H6.5C4.5 13 3.5 14 3.5 16V18C3.5 20 4.5 21 6.5 21H18.5C20.5 21 21.5 20 21.5 18V16C21.5 14 20.5 13 18.5 13Z" />
<path d="M18.5 17C18.5 17.552 18.052 18 17.5 18C16.948 18 16.5 17.552 16.5 17C16.5 16.448 16.948 16 17.5 16C18.052 16 18.5 16.448 18.5 17ZM14.5 16C13.948 16 13.5 16.448 13.5 17C13.5 17.552 13.948 18 14.5 18C15.052 18 15.5 17.552 15.5 17C15.5 16.448 15.052 16 14.5 16Z" />
</svg>
