<svg width="24" height="24" viewBox="0 0 24 24" xmlns="http://www.w3.org/2000/svg">
<path opacity="0.4" d="M20.92 10H12.75V3H11.25V10H3.07996C3.02996 10.37 3 10.75 3 11.12V18C3 20 4 21 6 21H18C20 21 21 20 21 18V11.12C21 10.75 20.97 10.37 20.92 10Z" fill="#25314C"/>
<path d="M7.26013 3H11.2501V10H3.08008C3.13008 9.64 3.21018 9.28001 3.31018 8.92001L4.38013 5.17999C4.75013 3.88999 5.00013 3 7.26013 3Z" fill="#25314C"/>
<path d="M20.92 10H12.75V3H16.74C19 3 19.25 3.88999 19.62 5.17999L20.6899 8.92001C20.7899 9.28001 20.87 9.64 20.92 10Z" fill="#25314C"/>
<path d="M14.25 16.912C14.25 15.971 13.627 15.15 12.73 14.914L11.646 14.635C11.534 14.606 11.438 14.541 11.363 14.439C11.29 14.343 11.25 14.219 11.25 14.089C11.25 13.78 11.48 13.528 11.764 13.528H12.2371C12.4971 13.528 12.7159 13.742 12.7469 14.025C12.7919 14.437 13.169 14.735 13.574 14.69C13.985 14.645 14.283 14.275 14.239 13.864C14.144 12.994 13.53 12.309 12.736 12.1V12C12.736 11.586 12.4 11.25 11.986 11.25C11.572 11.25 11.236 11.586 11.236 12V12.109C10.383 12.348 9.75098 13.14 9.75098 14.088C9.75098 14.545 9.90002 14.992 10.166 15.341C10.437 15.706 10.829 15.97 11.27 16.086L12.354 16.365C12.587 16.427 12.75 16.651 12.75 16.911C12.75 17.064 12.692 17.208 12.589 17.316C12.533 17.374 12.413 17.471 12.236 17.471H11.7629C11.5029 17.471 11.2841 17.257 11.2531 16.973C11.2081 16.561 10.837 16.264 10.426 16.308C10.015 16.353 9.71699 16.723 9.76099 17.134C9.85499 17.994 10.455 18.672 11.235 18.889V19C11.235 19.414 11.571 19.75 11.985 19.75C12.399 19.75 12.735 19.414 12.735 19V18.9C13.085 18.808 13.4079 18.628 13.6689 18.357C14.0439 17.969 14.25 17.455 14.25 16.912Z" fill="#25314C"/>
</svg>
