<svg width="18" height="18" viewBox="0 0 18 18" xmlns="http://www.w3.org/2000/svg">
<path d="M12.2396 8.99977C12.2396 10.7891 10.7891 12.2396 8.99974 12.2396C7.21034 12.2396 5.75987 10.7891 5.75987 8.99977C5.75987 7.2105 7.21034 5.75996 8.99974 5.75996C10.7891 5.75996 12.2396 7.2105 12.2396 8.99977ZM11.1146 8.99977C11.1146 7.83178 10.1676 6.88496 8.99974 6.88496C7.83162 6.88496 6.88487 7.83178 6.88487 8.99977C6.88487 10.1678 7.83162 11.1146 8.99974 11.1146C10.1676 11.1146 11.1146 10.1678 11.1146 8.99977Z" />
<path d="M1.25656 9.25849C2.76911 12.2285 5.73927 14.0623 9.00551 14.0623C12.2608 14.0623 15.2309 12.2285 16.7435 9.25849L16.875 8.99977L16.7435 8.74104C15.2309 5.78228 12.2608 3.93726 9.00551 3.93726C5.73927 3.93726 2.76911 5.78228 1.25656 8.74104L1.125 8.99977L1.25656 9.25849ZM9.00551 12.9373C6.24354 12.9373 3.73343 11.441 2.37442 8.99977C3.73343 6.55853 6.24354 5.06226 9.00551 5.06226C11.7565 5.06226 14.2666 6.55853 15.6366 8.99977C14.2773 11.441 11.7565 12.9373 9.00551 12.9373Z" />
</svg>
