<svg width="14" height="14" viewBox="0 0 14 14" xmlns="http://www.w3.org/2000/svg">
<path d="M12.4647 10.507H4.35034C4.1225 10.507 3.90541 10.3015 3.8762 10.0581L3.02562 4.06819L2.54465 1.29186C2.45716 0.575677 1.82784 0.015625 1.11147 0.015625H0.475018C0.212939 0.015625 -0.000244141 0.228824 -0.000244141 0.490903C-0.000244141 0.752949 0.212939 0.966165 0.475018 0.966165H1.11148C1.34766 0.966165 1.57336 1.17836 1.60448 1.42939L2.08637 4.21571L2.93361 10.1817C3.02027 10.897 3.64244 11.4571 4.35026 11.4571H12.4647C12.7268 11.4571 12.9399 11.2439 12.9399 10.9818C12.94 10.7202 12.7268 10.507 12.4647 10.507ZM13.591 2.45739C13.341 2.17426 12.9965 2.01857 12.6219 2.01857H2.51835C2.25621 2.01857 2.04303 2.23175 2.04303 2.49383C2.04303 2.75583 2.25621 2.96901 2.51835 2.96901H12.6219C12.7239 2.96901 12.8106 3.00883 12.8796 3.08694C12.9821 3.20286 13.0343 3.39306 13.0128 3.57173L12.2257 7.57126C12.1964 7.81125 11.9673 8.00912 11.7154 8.01051L3.63464 8.8069C3.50818 8.81601 3.39315 8.87352 3.31033 8.96981C3.22722 9.06557 3.18676 9.18821 3.19604 9.31474C3.21399 9.56199 3.42195 9.75549 3.66944 9.75549C3.6806 9.75549 3.69263 9.75501 3.70432 9.75398L11.7499 8.95911C12.459 8.95911 13.0799 8.41057 13.1651 7.71065L13.9527 3.71114C14.0098 3.23878 13.878 2.78129 13.591 2.45739ZM4.47961 13.955C5.01699 13.955 5.45431 13.5176 5.45431 12.9806C5.45431 12.443 5.01691 12.0056 4.47961 12.0056C3.94233 12.0056 3.50493 12.443 3.50493 12.9806C3.50493 13.5176 3.94233 13.955 4.47961 13.955ZM11.474 13.955C12.011 13.955 12.4485 13.5176 12.4485 12.9806C12.4485 12.443 12.011 12.0056 11.474 12.0056C10.9365 12.0056 10.4991 12.443 10.4991 12.9806C10.4991 13.5176 10.9365 13.955 11.474 13.955Z"/>
</svg>
