<svg width="20" height="20" viewBox="0 0 20 20" xmlns="http://www.w3.org/2000/svg">
<path d="M16.4673 17.4476H11.2028C11.1315 17.447 11.0611 17.4311 10.9955 17.4011C10.93 17.371 10.8708 17.3273 10.8212 17.2725C10.7717 17.2177 10.7328 17.153 10.7069 17.082C10.681 17.011 10.6686 16.9352 10.6704 16.8591V11.755C10.6687 11.6789 10.6811 11.6031 10.707 11.5322C10.733 11.4612 10.7718 11.3965 10.8214 11.3417C10.8709 11.2869 10.9301 11.2432 10.9956 11.2132C11.0611 11.1831 11.1315 11.1672 11.2028 11.1664H16.4673C16.539 11.1672 16.6098 11.1833 16.6755 11.2137C16.7413 11.2441 16.8007 11.2883 16.8503 11.3435C16.8999 11.3988 16.9387 11.4641 16.9643 11.5356C16.99 11.6071 17.002 11.6833 16.9997 11.7598V16.8542C17.002 16.9308 16.99 17.007 16.9643 17.0785C16.9387 17.15 16.8999 17.2153 16.8503 17.2705C16.8007 17.3258 16.7413 17.3699 16.6755 17.4004C16.6098 17.4308 16.539 17.4468 16.4673 17.4476ZM15.6445 13.101C15.6445 12.973 15.597 12.8503 15.5123 12.7598C15.4276 12.6694 15.3127 12.6185 15.193 12.6185H12.4835C12.4242 12.6185 12.3655 12.631 12.3107 12.6553C12.2559 12.6795 12.2061 12.715 12.1642 12.7598C12.1223 12.8046 12.089 12.8578 12.0663 12.9164C12.0436 12.9749 12.0319 13.0376 12.0319 13.101V15.5131C12.0319 15.5765 12.0436 15.6392 12.0663 15.6977C12.089 15.7562 12.1223 15.8094 12.1642 15.8542C12.2061 15.899 12.2559 15.9346 12.3107 15.9588C12.3655 15.9831 12.4242 15.9955 12.4835 15.9955H15.193C15.3127 15.9955 15.4276 15.9447 15.5123 15.8542C15.597 15.7638 15.6445 15.641 15.6445 15.5131V13.101ZM12.9351 7.79429H14.2898C13.9583 5.70539 13.5795 5.53653 11.6734 5.33391C11.5209 5.30312 11.3829 5.21732 11.2826 5.09086C11.1822 4.96441 11.1255 4.80497 11.122 4.63922C11.1212 4.54506 11.1383 4.45171 11.1724 4.36485C11.2064 4.27799 11.2567 4.19945 11.32 4.134C11.3834 4.06856 11.4586 4.01758 11.541 3.98418C11.6234 3.95078 11.7113 3.93565 11.7994 3.93971C14.3336 4.20021 15.3135 4.98175 15.645 7.79429H16.9997L15.1934 10.2064L12.9351 7.79429ZM9.24211 9.72882H3.97767C3.90636 9.72814 3.8359 9.71231 3.77038 9.68224C3.70486 9.65217 3.64559 9.60848 3.59604 9.5537C3.54649 9.49891 3.50764 9.43415 3.48175 9.36316C3.45587 9.29218 3.44346 9.2164 3.44527 9.14024V4.03621C3.44352 3.96007 3.45597 3.88432 3.48188 3.81337C3.50779 3.74242 3.54664 3.67767 3.59618 3.62291C3.64572 3.56814 3.70495 3.52444 3.77044 3.49435C3.83593 3.46426 3.90637 3.44838 3.97766 3.44763H9.24211C9.31377 3.44843 9.38456 3.4645 9.45033 3.49491C9.51609 3.52532 9.57551 3.56946 9.6251 3.62473C9.67469 3.68 9.71345 3.74529 9.73911 3.81677C9.76477 3.88826 9.7768 3.9645 9.77451 4.04102V9.13543C9.7768 9.21195 9.76477 9.28819 9.73911 9.35968C9.71345 9.43116 9.67469 9.49646 9.6251 9.55173C9.57551 9.607 9.51609 9.65113 9.45033 9.68154C9.38456 9.71195 9.31377 9.72802 9.24211 9.72882ZM8.41935 5.38216C8.41935 5.31881 8.40767 5.25607 8.38498 5.19754C8.36228 5.13901 8.32902 5.08583 8.28709 5.04103C8.24515 4.99623 8.19537 4.9607 8.14058 4.93645C8.08579 4.91221 8.02707 4.89973 7.96777 4.89974H5.25832C5.13855 4.89974 5.02369 4.95056 4.93901 5.04103C4.85432 5.13151 4.80675 5.25421 4.80675 5.38216V7.79429C4.80675 7.92224 4.85432 8.04494 4.93901 8.13542C5.02369 8.22589 5.13855 8.27672 5.25832 8.27672H7.96777C8.08753 8.27672 8.20239 8.22589 8.28708 8.13542C8.37176 8.04494 8.41934 7.92224 8.41934 7.79429V5.38216H8.41935ZM7.0646 13.5834H5.70989C6.04135 15.6723 6.42022 15.8412 8.32631 16.0438C8.4788 16.0746 8.61677 16.1604 8.71714 16.2868C8.8175 16.4133 8.87418 16.5727 8.87768 16.7385C8.8785 16.8326 8.86137 16.926 8.82732 17.0128C8.79328 17.0997 8.74304 17.1782 8.67967 17.2437C8.61629 17.3091 8.54111 17.3601 8.4587 17.3935C8.37629 17.4269 8.28838 17.442 8.20032 17.438C5.66609 17.1775 4.68618 16.3959 4.35472 13.5834H3L4.8063 11.1713L7.0646 13.5834Z"/>
</svg>
