<svg width="22" height="23" viewBox="0 0 22 23" xmlns="http://www.w3.org/2000/svg">
<g filter="url(#filter0_d_68_74189)">
<path d="M7.5 8.2065L10 10.707L14.5 6.2075L13.7925 5.5L10 9.293L8.2065 7.5L7.5 8.2065Z"/>
<path d="M7.11101 2.17971C8.26216 1.41054 9.61553 1 11 1C12.8565 1 14.637 1.7375 15.9497 3.05025C17.2625 4.36301 18 6.14348 18 8C18 9.38447 17.5895 10.7378 16.8203 11.889C16.0511 13.0401 14.9579 13.9373 13.6788 14.4672C12.3997 14.997 10.9922 15.1356 9.63437 14.8655C8.2765 14.5954 7.02922 13.9287 6.05026 12.9497C5.07129 11.9708 4.4046 10.7235 4.13451 9.36563C3.86441 8.00776 4.00303 6.6003 4.53285 5.32122C5.06266 4.04213 5.95987 2.94888 7.11101 2.17971ZM7.66658 12.9888C8.65328 13.6481 9.81332 14 11 14C12.5913 14 14.1174 13.3679 15.2426 12.2426C16.3679 11.1174 17 9.5913 17 8C17 6.81331 16.6481 5.65327 15.9888 4.66658C15.3295 3.67988 14.3925 2.91085 13.2961 2.45672C12.1997 2.0026 10.9933 1.88378 9.82946 2.11529C8.66558 2.3468 7.59648 2.91824 6.75736 3.75736C5.91825 4.59647 5.3468 5.66557 5.11529 6.82946C4.88378 7.99334 5.0026 9.19974 5.45673 10.2961C5.91085 11.3925 6.67989 12.3295 7.66658 12.9888Z"/>
</g>
<defs>
<filter id="filter0_d_68_74189" x="-1" y="0" width="24" height="24" filterUnits="userSpaceOnUse" color-interpolation-filters="sRGB">
<feFlood flood-opacity="0" result="BackgroundImageFix"/>
<feColorMatrix in="SourceAlpha" type="matrix" values="0 0 0 0 0 0 0 0 0 0 0 0 0 0 0 0 0 0 127 0" result="hardAlpha"/>
<feOffset dy="4"/>
<feGaussianBlur stdDeviation="2"/>
<feComposite in2="hardAlpha" operator="out"/>
<feColorMatrix type="matrix" values="0 0 0 0 0 0 0 0 0 0 0 0 0 0 0 0 0 0 0.25 0"/>
<feBlend mode="normal" in2="BackgroundImageFix" result="effect1_dropShadow_68_74189"/>
<feBlend mode="normal" in="SourceGraphic" in2="effect1_dropShadow_68_74189" result="shape"/>
</filter>
</defs>
</svg>
