<svg width="18" height="18" viewBox="0 0 18 18" xmlns="http://www.w3.org/2000/svg">
<path d="M5.22618 11.8899L8.11611 8.99994L5.2263 6.11012L6.11018 5.22624L9 8.11606L11.8898 5.22624L12.7737 6.11012L9.88388 8.99994L12.7738 11.8899L11.8899 12.7738L9 9.88382L6.11006 12.7738L5.22618 11.8899Z"/>
<path d="M9 0.25C13.8325 0.250001 17.75 4.16751 17.75 9C17.75 13.8325 13.8325 17.75 9 17.75C4.16751 17.75 0.249997 13.8325 0.25 9C0.250001 4.16751 4.16751 0.249997 9 0.25ZM9 1.5C4.85787 1.5 1.5 4.85786 1.5 9C1.5 13.1421 4.85786 16.5 9 16.5C13.1421 16.5 16.5 13.1421 16.5 9C16.5 4.85787 13.1421 1.5 9 1.5Z" />
</svg>
