<svg width="14" height="14" viewBox="0 0 14 14" xmlns="http://www.w3.org/2000/svg">
<path d="M3.5 7.2065L6 9.707L10.5 5.2075L9.7925 4.5L6 8.293L4.2065 6.5L3.5 7.2065Z"/>
<path d="M3.11101 1.17971C4.26216 0.410543 5.61553 0 7 0C8.85652 0 10.637 0.737498 11.9497 2.05025C13.2625 3.36301 14 5.14348 14 7C14 8.38447 13.5895 9.73785 12.8203 10.889C12.0511 12.0401 10.9579 12.9373 9.67879 13.4672C8.3997 13.997 6.99224 14.1356 5.63437 13.8655C4.2765 13.5954 3.02922 12.9287 2.05026 11.9497C1.07129 10.9708 0.404603 9.7235 0.134506 8.36563C-0.13559 7.00776 0.00303298 5.6003 0.532846 4.32122C1.06266 3.04213 1.95987 1.94888 3.11101 1.17971ZM3.66658 11.9888C4.65328 12.6481 5.81332 13 7 13C8.5913 13 10.1174 12.3679 11.2426 11.2426C12.3679 10.1174 13 8.5913 13 7C13 5.81331 12.6481 4.65327 11.9888 3.66658C11.3295 2.67988 10.3925 1.91085 9.2961 1.45672C8.19975 1.0026 6.99335 0.883777 5.82946 1.11529C4.66558 1.3468 3.59648 1.91824 2.75736 2.75736C1.91825 3.59647 1.3468 4.66557 1.11529 5.82946C0.88378 6.99334 1.0026 8.19974 1.45673 9.2961C1.91085 10.3925 2.67989 11.3295 3.66658 11.9888Z"/>
</svg>
