<svg width="14" height="14" viewBox="0 0 14 14" xmlns="http://www.w3.org/2000/svg">
<path d="M6.99998 0C5.61641 6.35246e-06 4.26388 0.410019 3.1132 1.17826C1.96252 1.94649 1.0653 3.03849 0.534869 4.31634C0.00443742 5.59419 -0.135419 7.00056 0.132963 8.35785C0.401345 9.71513 1.06593 10.9624 2.04278 11.9423C3.01962 12.9221 4.26492 13.5904 5.62139 13.8629C6.97786 14.1354 8.38465 13.9998 9.6641 13.4732C10.9436 12.9467 12.0383 12.0528 12.81 10.9044C13.5817 9.75605 13.9958 8.40477 14 7.02121C14.0017 6.10049 13.8219 5.18846 13.471 4.33723C13.12 3.48601 12.6048 2.71227 11.9548 2.06024C11.3047 1.4082 10.5325 0.890644 9.68235 0.53714C8.83219 0.183636 7.92071 0.00111316 6.99998 0ZM6.99998 12.7273C5.86633 12.7273 4.75818 12.3908 3.81588 11.7606C2.87358 11.1303 2.13952 10.2346 1.70666 9.1868C1.27381 8.13904 1.16164 6.9864 1.38435 5.87484C1.60706 4.76328 2.15464 3.74282 2.95774 2.9427C3.76084 2.14258 4.78333 1.59879 5.8957 1.3802C7.00808 1.16161 8.16031 1.27806 9.20645 1.7148C10.2526 2.15154 11.1456 2.88892 11.7724 3.83355C12.3991 4.77818 12.7315 5.88757 12.7273 7.02121C12.7205 8.53615 12.1143 9.98681 11.0411 11.0561C9.96784 12.1253 8.51494 12.7262 6.99998 12.7273ZM9.99938 6.49515H7.63635V4.00061C7.63635 3.83183 7.5693 3.66997 7.44996 3.55063C7.33062 3.43129 7.16875 3.36424 6.99998 3.36424C6.83121 3.36424 6.66934 3.43129 6.55 3.55063C6.43066 3.66997 6.36362 3.83183 6.36362 4.00061V7.13151C6.36362 7.30029 6.43066 7.46215 6.55 7.58149C6.66934 7.70083 6.83121 7.76788 6.99998 7.76788H9.99938C10.1681 7.76785 10.33 7.70079 10.4493 7.58145C10.5686 7.46212 10.6356 7.30027 10.6356 7.13151C10.6356 6.96276 10.5686 6.80091 10.4493 6.68157C10.33 6.56224 10.1681 6.49518 9.99938 6.49515Z"/>
</svg>
