<svg width="25" height="24" viewBox="0 0 25 24" xmlns="http://www.w3.org/2000/svg">
<path opacity="0.4" d="M11.5 18C11.5 18.552 11.052 19 10.5 19C9.948 19 9.5 18.552 9.5 18C9.5 17.448 9.948 17 10.5 17C11.052 17 11.5 17.448 11.5 18ZM7.5 17C6.948 17 6.5 17.448 6.5 18C6.5 18.552 6.948 19 7.5 19C8.052 19 8.5 18.552 8.5 18C8.5 17.448 8.052 17 7.5 17Z" />
<path fill-rule="evenodd" clip-rule="evenodd" d="M11 21H5C3 21 2 20 2 18C2 16 3 15 5 15H11C13 15 14 16 14 18C14 20 13 21 11 21ZM10.5 19C11.052 19 11.5 18.552 11.5 18C11.5 17.448 11.052 17 10.5 17C9.948 17 9.5 17.448 9.5 18C9.5 18.552 9.948 19 10.5 19ZM6.5 18C6.5 17.448 6.948 17 7.5 17C8.052 17 8.5 17.448 8.5 18C8.5 18.552 8.052 19 7.5 19C6.948 19 6.5 18.552 6.5 18Z" />
<path opacity="0.4" fill-rule="evenodd" clip-rule="evenodd" d="M11.0015 4C12.6475 4 14.1505 4.61297 15.2935 5.62097C15.7755 6.04597 16.1935 6.54103 16.5315 7.09003C16.8515 7.03003 17.1715 7 17.5015 7C20.2615 7 22.5015 9.24 22.5015 12C22.5015 14.76 20.2615 17 17.5015 17H14.9998C14.9998 15 13.9998 14 11.9998 14H5.5232C4.87643 12.9897 4.50146 11.7887 4.50146 10.5C4.50146 6.91 7.41146 4 11.0015 4Z" />
<path d="M15 9.75H13.75V8.5C13.75 8.086 13.414 7.75 13 7.75C12.586 7.75 12.25 8.086 12.25 8.5V9.75H11C10.586 9.75 10.25 10.086 10.25 10.5C10.25 10.914 10.586 11.25 11 11.25H12.25V12.5C12.25 12.914 12.586 13.25 13 13.25C13.414 13.25 13.75 12.914 13.75 12.5V11.25H15C15.414 11.25 15.75 10.914 15.75 10.5C15.75 10.086 15.414 9.75 15 9.75Z" />
</svg>
