<svg width="24" height="24" viewBox="0 0 24 24" xmlns="http://www.w3.org/2000/svg">
<path opacity="0.4" fill-rule="evenodd" clip-rule="evenodd" d="M11.5017 4C13.1477 4 14.6507 4.61297 15.7937 5.62097C16.2757 6.04597 16.6937 6.54103 17.0317 7.09003C17.3517 7.03003 17.6717 7 18.0017 7C20.7617 7 23.0017 9.24 23.0017 12C23.0017 14.76 20.7617 17 18.0017 17H13.9772C13.9612 16.8217 13.937 16.6441 13.9046 16.4678L12.4525 9.96313C12.1925 8.53613 11.0038 7 9.49983 7H6.02344C7.17847 5.19581 9.20037 4 11.5017 4Z"/>
<path d="M15.8328 13.5828C15.6338 13.5828 15.4428 13.5038 15.3028 13.3628L13.9698 12.0298C13.6768 11.7368 13.6768 11.2618 13.9698 10.9688C14.2628 10.6758 14.7378 10.6758 15.0308 10.9688L15.8338 11.7718L17.9707 9.63577C18.2637 9.34277 18.7388 9.34277 19.0318 9.63577C19.3248 9.92877 19.3248 10.4038 19.0318 10.6968L16.3648 13.3638C16.2228 13.5038 16.0318 13.5828 15.8328 13.5828Z" />
<path d="M12.4041 14.468L10.949 9.46411C10 8 9.50107 8.00098 7.99707 8.00098H6.00488C4.50088 8.00098 4 8 3.05298 9.46411L1.59692 14.468C1.53292 14.822 1.5 15.181 1.5 15.541V17C1.5 15 2.5 14 4.5 14H9.5C11.5 14 12.5 15 12.5 17V15.541C12.501 15.181 12.4691 14.822 12.4041 14.468Z" />
<path opacity="0.4" d="M9.5 14H4.5C2.5 14 1.5 15 1.5 17C1.5 19 2.5 20 4.5 20H9.5C11.5 20 12.5 19 12.5 17C12.5 15 11.5 14 9.5 14Z" />
<path d="M10.5 17C10.5 17.552 10.052 18 9.5 18C8.948 18 8.5 17.552 8.5 17C8.5 16.448 8.948 16 9.5 16C10.052 16 10.5 16.448 10.5 17ZM6.5 16C5.948 16 5.5 16.448 5.5 17C5.5 17.552 5.948 18 6.5 18C7.052 18 7.5 17.552 7.5 17C7.5 16.448 7.052 16 6.5 16Z" />
</svg>
