<svg width="24" height="24" viewBox="0 0 24 24" xmlns="http://www.w3.org/2000/svg">
<path opacity="0.4" d="M13.9911 6.80108C12.7211 5.68108 11.0511 5 9.22222 5C5.23333 5 2 8.23333 2 12.2222C2 16.2111 5.23333 19.4444 9.22222 19.4444H16.4444C19.5111 19.4444 22 16.9556 22 13.8889C22 10.8222 19.5111 8.33333 16.4444 8.33333C16.0778 8.33333 15.7223 8.3667 15.3667 8.43336C14.9911 7.82336 14.5267 7.2733 13.9911 6.80108Z" />
<path d="M9.53003 13.5318C9.38403 13.6778 9.192 13.7517 9 13.7517C8.808 13.7517 8.61597 13.6788 8.46997 13.5318L6.96997 12.0318C6.90097 11.9628 6.84611 11.8799 6.80811 11.7879C6.73211 11.6049 6.73211 11.3979 6.80811 11.2149C6.84611 11.1229 6.90097 11.0397 6.96997 10.9707L8.46997 9.47073C8.76297 9.17773 9.23801 9.17773 9.53101 9.47073C9.82401 9.76373 9.82401 10.2388 9.53101 10.5318L9.31104 10.7517H13.25C14.904 10.7517 16.25 12.0977 16.25 13.7517C16.25 15.4057 14.904 16.7517 13.25 16.7517H11C10.586 16.7517 10.25 16.4157 10.25 16.0017C10.25 15.5877 10.586 15.2517 11 15.2517H13.25C14.077 15.2517 14.75 14.5787 14.75 13.7517C14.75 12.9247 14.077 12.2517 13.25 12.2517H9.31104L9.53101 12.4717C9.82301 12.7647 9.82303 13.2388 9.53003 13.5318Z" />
</svg>
