<svg width="30" height="30" viewBox="0 0 30 30" xmlns="http://www.w3.org/2000/svg">
<path opacity="0.4" fill-rule="evenodd" clip-rule="evenodd" d="M14.3766 5C16.4341 5 18.3129 5.76621 19.7416 7.02621C20.3441 7.55746 20.8667 8.17628 21.2892 8.86253C21.6892 8.78753 22.0891 8.75 22.5016 8.75C25.9516 8.75 28.7516 11.55 28.7516 15C28.7516 18.45 25.9516 21.25 22.5016 21.25H17.4715C17.4515 21.0271 17.4213 20.8051 17.3808 20.5847L15.5656 12.4539C15.2406 10.6702 13.7548 8.75 11.8748 8.75H7.52881C8.9726 6.49476 11.5 5 14.3766 5Z" />
<path d="M23.125 15.3125H18.125C17.6075 15.3125 17.1875 14.8925 17.1875 14.375C17.1875 13.8575 17.6075 13.4375 18.125 13.4375H23.125C23.6425 13.4375 24.0625 13.8575 24.0625 14.375C24.0625 14.8925 23.6425 15.3125 23.125 15.3125Z" />
<path d="M15.5051 18.0848L13.6862 11.8299C12.5 9.99976 11.8763 10.001 9.99634 10.001H7.5061C5.6261 10.001 5 9.99976 3.81622 11.8299L1.99615 18.0848C1.91615 18.5273 1.875 18.976 1.875 19.426V21.2498C1.875 18.7498 3.125 17.4998 5.625 17.4998H11.875C14.375 17.4998 15.625 18.7498 15.625 21.2498V19.426C15.6263 18.976 15.5863 18.5273 15.5051 18.0848Z" />
<path opacity="0.4" d="M11.875 17.5H5.625C3.125 17.5 1.875 18.75 1.875 21.25C1.875 23.75 3.125 25 5.625 25H11.875C14.375 25 15.625 23.75 15.625 21.25C15.625 18.75 14.375 17.5 11.875 17.5Z" />
<path d="M13.125 21.25C13.125 21.94 12.565 22.5 11.875 22.5C11.185 22.5 10.625 21.94 10.625 21.25C10.625 20.56 11.185 20 11.875 20C12.565 20 13.125 20.56 13.125 21.25ZM8.125 20C7.435 20 6.875 20.56 6.875 21.25C6.875 21.94 7.435 22.5 8.125 22.5C8.815 22.5 9.375 21.94 9.375 21.25C9.375 20.56 8.815 20 8.125 20Z" />
</svg>
