<svg width="30" height="30" viewBox="0 0 30 30" xmlns="http://www.w3.org/2000/svg">
<path opacity="0.4" d="M13.75 22.5C13.75 23.19 13.19 23.75 12.5 23.75C11.81 23.75 11.25 23.19 11.25 22.5C11.25 21.81 11.81 21.25 12.5 21.25C13.19 21.25 13.75 21.81 13.75 22.5ZM8.75 21.25C8.06 21.25 7.5 21.81 7.5 22.5C7.5 23.19 8.06 23.75 8.75 23.75C9.44 23.75 10 23.19 10 22.5C10 21.81 9.44 21.25 8.75 21.25Z" />
<path fill-rule="evenodd" clip-rule="evenodd" d="M13.125 26.25H5.625C3.125 26.25 1.875 25 1.875 22.5C1.875 20 3.125 18.75 5.625 18.75H13.125C15.625 18.75 16.875 20 16.875 22.5C16.875 25 15.625 26.25 13.125 26.25ZM12.5 23.75C13.19 23.75 13.75 23.19 13.75 22.5C13.75 21.81 13.19 21.25 12.5 21.25C11.81 21.25 11.25 21.81 11.25 22.5C11.25 23.19 11.81 23.75 12.5 23.75ZM7.5 22.5C7.5 21.81 8.06 21.25 8.75 21.25C9.44 21.25 10 21.81 10 22.5C10 23.19 9.44 23.75 8.75 23.75C8.06 23.75 7.5 23.19 7.5 22.5Z" />
<path opacity="0.4" fill-rule="evenodd" clip-rule="evenodd" d="M13.127 5C15.1845 5 17.0632 5.76621 18.4919 7.02621C19.0944 7.55746 19.617 8.17628 20.0395 8.86253C20.4395 8.78753 20.8395 8.75 21.252 8.75C24.702 8.75 27.502 11.55 27.502 15C27.502 18.45 24.702 21.25 21.252 21.25H18.125C18.125 18.75 16.875 17.5 14.375 17.5H6.27913C5.47065 16.2371 5.00195 14.7358 5.00195 13.125C5.00195 8.6375 8.63945 5 13.127 5Z" />
<path d="M18.125 14.0625H13.125C12.6075 14.0625 12.1875 13.6425 12.1875 13.125C12.1875 12.6075 12.6075 12.1875 13.125 12.1875H18.125C18.6425 12.1875 19.0625 12.6075 19.0625 13.125C19.0625 13.6425 18.6425 14.0625 18.125 14.0625Z" />
</svg>
