<svg width="20" height="20" viewBox="0 0 20 20" xmlns="http://www.w3.org/2000/svg">
<rect width="20" height="20" fill="white"/>
<path opacity="0.4" d="M5.83398 17.5H14.1673C15.834 17.5 16.6673 16.6667 16.6673 15V4.99998C16.6673 3.33332 15.834 2.49998 14.1673 2.49998H5.83398C4.16732 2.49998 3.33398 3.33332 3.33398 4.99998V15C3.33398 16.6667 4.16732 17.5 5.83398 17.5Z" />
<path d="M7.08301 8.33332H12.9163C13.7497 8.33332 14.1663 7.91665 14.1663 7.08332V6.24998C14.1663 5.41665 13.7497 4.99998 12.9163 4.99998H7.08301C6.24967 4.99998 5.83301 5.41665 5.83301 6.24998V7.08332C5.83301 7.91665 6.24967 8.33332 7.08301 8.33332Z" />
<path d="M13.3333 12.5C13.7936 12.5 14.1667 12.1269 14.1667 11.6667C14.1667 11.2064 13.7936 10.8333 13.3333 10.8333C12.8731 10.8333 12.5 11.2064 12.5 11.6667C12.5 12.1269 12.8731 12.5 13.3333 12.5Z" />
<path d="M10.0003 12.5C10.4606 12.5 10.8337 12.1269 10.8337 11.6667C10.8337 11.2064 10.4606 10.8333 10.0003 10.8333C9.54009 10.8333 9.16699 11.2064 9.16699 11.6667C9.16699 12.1269 9.54009 12.5 10.0003 12.5Z" />
<path d="M6.66634 12.5C7.12658 12.5 7.49967 12.1269 7.49967 11.6667C7.49967 11.2064 7.12658 10.8333 6.66634 10.8333C6.2061 10.8333 5.83301 11.2064 5.83301 11.6667C5.83301 12.1269 6.2061 12.5 6.66634 12.5Z" />
<path d="M13.3333 15C13.7936 15 14.1667 14.6269 14.1667 14.1667C14.1667 13.7064 13.7936 13.3333 13.3333 13.3333C12.8731 13.3333 12.5 13.7064 12.5 14.1667C12.5 14.6269 12.8731 15 13.3333 15Z" />
<path d="M10.0003 15C10.4606 15 10.8337 14.6269 10.8337 14.1667C10.8337 13.7064 10.4606 13.3333 10.0003 13.3333C9.54009 13.3333 9.16699 13.7064 9.16699 14.1667C9.16699 14.6269 9.54009 15 10.0003 15Z" />
<path d="M6.66634 15C7.12658 15 7.49967 14.6269 7.49967 14.1667C7.49967 13.7064 7.12658 13.3333 6.66634 13.3333C6.2061 13.3333 5.83301 13.7064 5.83301 14.1667C5.83301 14.6269 6.2061 15 6.66634 15Z" />
</svg>
