<svg width="14" height="14" viewBox="0 0 14 14" xmlns="http://www.w3.org/2000/svg">
<path fill-rule="evenodd" clip-rule="evenodd" d="M4.5 4.5V1.5C4.5 0.947715 4.94772 0.5 5.5 0.5H12.5C13.0523 0.5 13.5 0.947715 13.5 1.5V8.5C13.5 9.05229 13.0523 9.5 12.5 9.5H9.5V12.5C9.5 13.0523 9.05229 13.5 8.5 13.5H1.5C0.947715 13.5 0.5 13.0523 0.5 12.5V5.5C0.5 4.94772 0.947715 4.5 1.5 4.5H4.5ZM5.5 1.5H12.5V8.5H9.5V5.5C9.5 4.94772 9.05229 4.5 8.5 4.5H5.5V1.5ZM8.5 9.5V12.5H1.5V5.5H4.5V8.5C4.5 9.05229 4.94772 9.5 5.5 9.5H8.5ZM8.5 8.5H5.5V5.5H8.5V8.5Z"/>
</svg>
