<svg width="14" height="14" viewBox="0 0 14 14" xmlns="http://www.w3.org/2000/svg">
<path d="M6.78421 8.72115C6.84837 8.76198 6.92421 8.77948 7.00004 8.77948C7.15171 8.77948 7.29754 8.70365 7.37921 8.55782L7.92754 7.60115C8.06171 7.36198 8.07337 7.09948 7.95087 6.88948C7.82837 6.67948 7.60087 6.55698 7.32087 6.55698H6.97671L7.37337 5.86865C7.49004 5.66445 7.42004 5.39612 7.21004 5.27362C7.00587 5.15695 6.73754 5.22695 6.61504 5.43695L6.06671 6.39365C5.93254 6.63282 5.92087 6.89532 6.04337 7.10532C6.16587 7.31532 6.39337 7.43782 6.67337 7.43782H7.01754L6.62087 8.12615C6.50421 8.33032 6.57421 8.59865 6.78421 8.72115Z" />
<path fill-rule="evenodd" clip-rule="evenodd" d="M7.87525 10.3545H6.12525C4.43359 10.3545 3.64609 9.56697 3.64609 7.87531V6.12531C3.64609 4.43364 4.43359 3.64614 6.12525 3.64614H7.87525C9.56692 3.64614 10.3544 4.43364 10.3544 6.12531V7.87531C10.3544 9.56697 9.56692 10.3545 7.87525 10.3545ZM6.12525 4.52114C4.91192 4.52114 4.52109 4.91197 4.52109 6.12531V7.87531C4.52109 9.08864 4.91192 9.47947 6.12525 9.47947H7.87525C9.08859 9.47947 9.47942 9.08864 9.47942 7.87531V6.12531C9.47942 4.91197 9.08859 4.52114 7.87525 4.52114H6.12525Z"/>
<path fill-rule="evenodd" clip-rule="evenodd" d="M5.11015 1.91126C5.26736 1.90115 5.4307 1.89614 5.60025 1.89614H6.56279V1.16699C6.56279 0.927826 6.76112 0.729492 7.00029 0.729492C7.23946 0.729492 7.43779 0.927826 7.43779 1.16699V1.89614H8.40025C8.57187 1.89614 8.73712 1.90128 8.89609 1.91163V1.16699C8.89609 0.927826 9.09442 0.729492 9.33359 0.729492C9.57275 0.729492 9.77109 0.927826 9.77109 1.16699V2.03606C10.9719 2.31723 11.6833 3.0287 11.9645 4.22949H12.8337C13.0728 4.22949 13.2712 4.42783 13.2712 4.66699C13.2712 4.90616 13.0787 5.10449 12.8337 5.10449H12.0889C12.0993 5.26345 12.1044 5.4287 12.1044 5.60031V6.56282H12.8337C13.0728 6.56282 13.2712 6.76115 13.2712 7.00032C13.2712 7.23948 13.0787 7.43782 12.8337 7.43782H12.1044V8.40031C12.1044 8.57192 12.0993 8.73717 12.0889 8.89614H12.8337C13.0728 8.89614 13.2712 9.09447 13.2712 9.33364C13.2712 9.57281 13.0787 9.77114 12.8337 9.77114H11.9645C11.6833 10.9719 10.9719 11.6834 9.77109 11.9646V12.8337C9.77109 13.0728 9.57275 13.2712 9.33359 13.2712C9.09442 13.2712 8.89609 13.0728 8.89609 12.8337V12.089C8.73712 12.0993 8.57187 12.1045 8.40025 12.1045H7.44356V12.8337C7.44356 13.0728 7.24522 13.2712 7.00606 13.2712C6.76689 13.2712 6.56856 13.0728 6.56856 12.8337V12.1045H5.60025C5.4307 12.1045 5.26736 12.0995 5.11015 12.0894V12.8337C5.11015 13.0728 4.91182 13.2712 4.67265 13.2712C4.43349 13.2712 4.23515 13.0728 4.23515 12.8337V11.9659C3.03091 11.6857 2.31762 10.9738 2.03601 9.77114H1.16699C0.927826 9.77114 0.729492 9.57281 0.729492 9.33364C0.729492 9.09447 0.927826 8.89614 1.16699 8.89614H1.91157C1.90122 8.73717 1.89609 8.57192 1.89609 8.40031V7.43782H1.16699C0.927826 7.43782 0.729492 7.23948 0.729492 7.00032C0.729492 6.76115 0.927826 6.56282 1.16699 6.56282H1.89609V5.60031C1.89609 5.4287 1.90122 5.26345 1.91157 5.10449H1.16699C0.927826 5.10449 0.729492 4.91199 0.729492 4.66699C0.729492 4.42199 0.927826 4.22949 1.16699 4.22949H2.036C2.31761 3.02679 3.0309 2.31496 4.23515 2.03472V1.16699C4.23515 0.927826 4.43349 0.729492 4.67265 0.729492C4.91182 0.729492 5.11015 0.927826 5.11015 1.16699V1.91126ZM2.77109 7.00829L2.77116 7.00032L2.77109 6.99246V5.60031C2.77109 3.51197 3.51192 2.77114 5.60025 2.77114H6.99635L7.00029 2.77116L7.00423 2.77114H8.40025C10.4886 2.77114 11.2294 3.51197 11.2294 5.60031V8.40031C11.2294 10.4886 10.4886 11.2295 8.40025 11.2295H5.60025C3.51192 11.2295 2.77109 10.4886 2.77109 8.40031V7.00829Z" />
</svg>
