<svg width="25" height="24" viewBox="0 0 25 24" fill="none" xmlns="http://www.w3.org/2000/svg">
<path d="M18.5 12C18.5 12.3205 18.2399 12.5806 17.9194 12.5806H13.0806V17.4194C13.0806 17.7399 12.8205 18 12.5 18C12.1795 18 11.9194 17.7399 11.9194 17.4194V12.5806H7.08065C6.76013 12.5806 6.5 12.3205 6.5 12C6.5 11.6795 6.76013 11.4194 7.08065 11.4194H11.9194V6.58065C11.9194 6.26013 12.1795 6 12.5 6C12.8205 6 13.0806 6.26013 13.0806 6.58065V11.4194H17.9194C18.2399 11.4194 18.5 11.6795 18.5 12Z" fill="#86909C"/>
<rect x="1" y="0.5" width="23" height="23" stroke="#D9D9D9" stroke-dasharray="2 2"/>
</svg>
