<svg width="16" height="16" viewBox="0 0 16 16" xmlns="http://www.w3.org/2000/svg">
<path d="M10.3 6.95078C10.5 7.15078 10.5 7.45078 10.3 7.65078L6.40005 11.5508C6.20005 11.7508 5.90005 11.7508 5.70005 11.5508C5.50005 11.3508 5.50005 11.0508 5.70005 10.8508L9.60005 6.95078C9.80005 6.75078 10.1 6.75078 10.3 6.95078Z" />
<path d="M5.70005 6.95078C5.90005 6.75078 6.20005 6.75078 6.40005 6.95078L10.3 10.8508C10.5 11.0508 10.5 11.3508 10.3 11.5508C10.1 11.7508 9.80005 11.7508 9.60005 11.5508L5.70005 7.65078C5.50005 7.45078 5.50005 7.15078 5.70005 6.95078Z" />
<path d="M14.35 3.45C14.7 3.45 15 3.75 15 4.1C15 4.45 14.7 4.8 14.35 4.8H13.1V13.7C13.1 14.4 12.55 14.95 11.85 14.95H4.2C3.5 14.95 2.95 14.4 2.95 13.7V4.8H1.65C1.3 4.8 1 4.45 1 4.1C1 3.75 1.3 3.45 1.65 3.45H14.35ZM11.6 4.95H4.4V13.5H11.6V4.95ZM10.25 2.5H5.75C5.4 2.5 5.15 2.15 5.15 1.75C5.15 1.35 5.4 1 5.75 1H10.2C10.55 1 10.85 1.35 10.85 1.75C10.85 2.15 10.6 2.5 10.25 2.5Z" />
</svg>
