<svg width="20" height="20" viewBox="0 0 20 20" xmlns="http://www.w3.org/2000/svg">
<path d="M5.1 8.69329C3.36667 8.81329 2 10.24 2 12C2 13.8401 3.4932 15.3333 5.33333 15.3333H14C16.2067 15.3333 18 13.5401 18 11.3333C18 9.27329 16.44 7.57329 14.4333 7.35996C13.6 5.75996 11.9267 4.66663 10 4.66663C7.5732 4.66663 5.55307 6.39329 5.1 8.69329ZM5.33333 14C4.22653 14 3.33333 13.1068 3.33333 12C3.33333 10.8932 4.22653 9.99996 5.33333 9.99996H6.33333V9.66663C6.33333 7.63996 7.9732 5.99996 10 5.99996C11.6799 5.99996 13.0867 7.12676 13.5267 8.66663H14C15.4733 8.66663 16.6667 9.85996 16.6667 11.3333C16.6667 12.8068 15.4733 14 14 14H5.33333ZM8.93333 11.9349L11.0667 12V8.5H8.93333V11.9349ZM8 11.9349L10 14L12 11.9349H8Z" />
</svg>
