<svg width="24" height="24" viewBox="0 0 24 24" xmlns="http://www.w3.org/2000/svg">
<path opacity="0.4" d="M6.375 21H17.625C19.875 21 21 19.875 21 17.625V6.375C21 4.125 19.875 3 17.625 3H6.375C4.125 3 3 4.125 3 6.375V17.625C3 19.875 4.125 21 6.375 21Z" />
<path d="M6 8.5C7.5 8.5 10.7 10.4 11.5 12" stroke="#25314C" stroke-width="1.5" stroke-linecap="round"/>
<path d="M13 13.5C14 15 15 15.5 16.5 15.5" stroke="#25314C" stroke-width="1.5" stroke-linecap="round"/>
<path d="M5.5 15.5009C7 16.0009 9.9 16.0004 11.5 12.0004C13.1 8.00043 16.5 8.00077 17.5 8.50032" stroke="#25314C" stroke-width="1.5" stroke-linecap="round"/>
</svg>
