<svg width="25" height="24" viewBox="0 0 25 24" xmlns="http://www.w3.org/2000/svg">
<path opacity="0.4" d="M15.58 18.541L13.561 20.56C12.975 21.146 12.0249 21.146 11.4399 20.56L9.42102 18.541C8.89302 18.013 8.05696 17.954 7.45996 18.402L6.10095 19.421C5.44195 19.915 4.50098 19.445 4.50098 18.621V5.37801C4.50098 4.55401 5.44195 4.08402 6.10095 4.57802L7.45996 5.597C8.05696 6.045 8.89302 5.98602 9.42102 5.45802L11.4399 3.43901C12.0259 2.85301 12.976 2.85301 13.561 3.43901L15.58 5.45802C16.108 5.98602 16.944 6.045 17.541 5.597L18.9 4.57802C19.559 4.08402 20.5 4.55401 20.5 5.37801V18.621C20.5 19.445 19.559 19.915 18.9 19.421L17.541 18.402C16.944 17.954 16.108 18.013 15.58 18.541Z" />
<path d="M10.0001 15.25C9.80812 15.25 9.61609 15.177 9.47009 15.03C9.17709 14.737 9.17709 14.262 9.47009 13.969L14.4701 8.96899C14.7631 8.67599 15.2381 8.67599 15.5311 8.96899C15.8241 9.26199 15.8241 9.737 15.5311 10.03L10.5311 15.03C10.3841 15.177 10.1921 15.25 10.0001 15.25ZM11.0201 9.5C11.0201 8.948 10.5731 8.5 10.0201 8.5H10.0101C9.45813 8.5 9.01514 8.948 9.01514 9.5C9.01514 10.052 9.46814 10.5 10.0201 10.5C10.5721 10.5 11.0201 10.052 11.0201 9.5ZM16.0201 14.5C16.0201 13.948 15.5731 13.5 15.0201 13.5H15.0101C14.4581 13.5 14.0151 13.948 14.0151 14.5C14.0151 15.052 14.4681 15.5 15.0201 15.5C15.5721 15.5 16.0201 15.052 16.0201 14.5Z" />
</svg>
