<svg width="30" height="30" viewBox="0 0 30 30" xmlns="http://www.w3.org/2000/svg">
<g clip-path="url(#clip0_1098_142286)">
<path opacity="0.4" d="M27.4951 22.4588C27.4951 23.0538 27.0726 23.5788 26.4676 23.685C26.2588 23.7213 21.2938 24.5238 16.535 19.2488C16.0738 18.7376 16.1125 17.9476 16.6263 17.4839C17.1388 17.0214 17.9289 17.0612 18.3926 17.5737C22.1789 21.77 25.8899 21.245 26.0461 21.22C26.7236 21.1137 27.3661 21.5725 27.4786 22.2487C27.4886 22.3187 27.4951 22.3888 27.4951 22.4588Z" />
<path opacity="0.4" d="M16.2626 15C16.2626 15.6913 15.7026 16.25 15.0126 16.25C14.5489 16.25 14.1389 15.9938 13.9189 15.6163C9.69888 8.3288 4.11757 8.78881 3.88257 8.81256C3.19882 8.88006 2.58388 8.38379 2.51263 7.70004C2.43388 7.00754 2.92879 6.40502 3.61004 6.32752C3.90879 6.29377 10.9551 5.60127 16.0276 14.27C16.1751 14.4763 16.2626 14.7275 16.2626 15Z" />
<path opacity="0.4" d="M11.25 14.9999V20.5498C11.25 21.2411 10.69 21.7998 10 21.7998C9.31 21.7998 8.75 21.2411 8.75 20.5498V14.9999C8.75 14.3086 9.31 13.7499 10 13.7499C10.69 13.7499 11.25 14.3086 11.25 14.9999Z" />
<path d="M13.9174 14.3828C11.8399 17.9716 9.43609 19.6766 7.49984 20.4841L7.49984 11.2504C7.49984 10.5591 6.93984 10.0004 6.24984 10.0004C5.55984 10.0004 4.99984 10.5591 4.99984 11.2504L4.99984 21.1516C4.35734 21.2241 3.94601 21.1916 3.88351 21.1854C3.20101 21.1116 2.58622 21.6028 2.50747 22.2866C2.42247 22.9853 2.92232 23.5929 3.60732 23.6692C3.90732 23.7029 11.0036 24.4053 16.0811 15.6341C18.2411 11.9041 20.6111 10.1815 22.4998 9.39154V19.2341C22.4998 19.9253 23.0598 20.4841 23.7498 20.4841C24.4398 20.4841 24.9998 19.9253 24.9998 19.2341V8.76288C25.6023 8.71663 25.9785 8.76908 26.0323 8.77783C26.7123 8.89908 27.3612 8.44419 27.4812 7.76419C27.4937 7.69044 27.4998 7.61788 27.4998 7.54538C27.4998 6.94913 27.0737 6.42284 26.4674 6.31659C26.1749 6.26534 19.2574 5.15909 13.9174 14.3828Z" />
<path opacity="0.4" d="M21.2119 9.37622V15C21.2119 15.6912 20.6519 16.25 19.9619 16.25C19.2719 16.25 18.7119 15.6912 18.7119 15V9.37622C18.7119 8.68497 19.2719 8.12622 19.9619 8.12622C20.6519 8.12622 21.2119 8.68497 21.2119 9.37622Z" />
</g>
<defs>
<clipPath id="clip0_1098_142286">
<rect width="30" height="30" fill="white"/>
</clipPath>
</defs>
</svg>
