<svg width="24" height="24" viewBox="0 0 24 24" xmlns="http://www.w3.org/2000/svg">
<path opacity="0.4" d="M12 22C17.5228 22 22 17.5228 22 12C22 6.47715 17.5228 2 12 2C6.47715 2 2 6.47715 2 12C2 17.5228 6.47715 22 12 22Z" fill="#25314C"/>
<path d="M14.9718 14.017C14.9718 12.815 14.1568 11.769 12.9858 11.473L11.3778 11.074C11.1298 11.012 10.9189 10.873 10.7599 10.67C10.6099 10.48 10.5269 10.236 10.5269 9.98499C10.5269 9.36599 11.0298 8.86304 11.6488 8.86304H12.3488C12.9208 8.86304 13.3998 9.29304 13.4648 9.86304C13.5108 10.275 13.8779 10.573 14.2939 10.525C14.7059 10.479 15.0018 10.108 14.9558 9.69604C14.8208 8.49404 13.8908 7.56695 12.7268 7.39795V7C12.7268 6.586 12.3908 6.25 11.9768 6.25C11.5628 6.25 11.2268 6.586 11.2268 7V7.40405C9.98184 7.60805 9.02686 8.68203 9.02686 9.98303C9.02686 10.57 9.22386 11.144 9.57886 11.592C9.93486 12.051 10.4428 12.383 11.0128 12.527L12.6208 12.926C13.1218 13.053 13.4718 13.501 13.4718 14.015C13.4718 14.313 13.3548 14.594 13.1418 14.807C12.9288 15.02 12.6479 15.137 12.3499 15.137H11.6498C11.0778 15.137 10.5988 14.707 10.5338 14.137C10.4878 13.725 10.1118 13.425 9.70483 13.475C9.29283 13.521 8.99685 13.892 9.04285 14.304C9.17585 15.491 10.0838 16.412 11.2268 16.597V17C11.2268 17.414 11.5628 17.75 11.9768 17.75C12.3908 17.75 12.7268 17.414 12.7268 17V16.6021C13.2818 16.5211 13.7968 16.275 14.2018 15.87C14.6988 15.373 14.9718 14.715 14.9718 14.017Z" fill="#25314C"/>
</svg>
