<svg width="20" height="20" viewBox="0 0 20 20" xmlns="http://www.w3.org/2000/svg">
<path d="M9.75 1C4.91797 1 1 4.91797 1 9.75C1 14.582 4.91797 18.5 9.75 18.5C14.582 18.5 18.5 14.582 18.5 9.75C18.5 4.91797 14.582 1 9.75 1ZM13.5 10.2188C13.5 10.3047 13.4297 10.375 13.3438 10.375H10.375V13.3438C10.375 13.4297 10.3047 13.5 10.2188 13.5H9.28125C9.19531 13.5 9.125 13.4297 9.125 13.3438V10.375H6.15625C6.07031 10.375 6 10.3047 6 10.2188V9.28125C6 9.19531 6.07031 9.125 6.15625 9.125H9.125V6.15625C9.125 6.07031 9.19531 6 9.28125 6H10.2188C10.3047 6 10.375 6.07031 10.375 6.15625V9.125H13.3438C13.4297 9.125 13.5 9.19531 13.5 9.28125V10.2188Z"/>
</svg>
