<svg width="24" height="24" viewBox="0 0 24 24" xmlns="http://www.w3.org/2000/svg">
<path d="M9.0835 2H14.9168C15.7502 2 16.1668 2.47619 16.1668 3.42857V8.19049C16.1668 9.14287 15.7502 9.61906 14.9168 9.61906H9.0835C8.25016 9.61906 7.8335 9.14287 7.8335 8.19049V3.42857C7.8335 2.47619 8.25016 2 9.0835 2Z" fill="#25314C"/>
<path d="M12.251 9.61914C12.3173 9.61914 12.3809 9.64924 12.4278 9.70282C12.4746 9.75641 12.501 9.82908 12.501 9.90485V11.5239H18.9176C18.9942 11.5239 19.0701 11.5411 19.1409 11.5747C19.2116 11.6082 19.276 11.6573 19.3301 11.7192C19.3843 11.7811 19.4273 11.8546 19.4566 11.9354C19.4859 12.0163 19.501 12.103 19.501 12.1906V14.8572H18.6676L18.6668 12.4763H5.33431V14.8572H4.50098V12.1906C4.50098 12.0138 4.56243 11.8442 4.67183 11.7192C4.78123 11.5941 4.9296 11.5239 5.08431 11.5239H11.501V9.90485C11.501 9.82908 11.5273 9.75641 11.5742 9.70282C11.6211 9.64924 11.6847 9.61914 11.751 9.61914H12.251Z" fill="#25314C"/>
<path opacity="0.4" d="M6.58333 14.3772C6.91485 14.3772 7.2328 14.5277 7.46722 14.7956C7.70164 15.0635 7.83333 15.4269 7.83333 15.8058V20.5715C7.83333 20.9504 7.70164 21.3137 7.46722 21.5816C7.2328 21.8496 6.91485 22.0001 6.58333 22.0001H3.25C2.91848 22.0001 2.60054 21.8496 2.36612 21.5816C2.1317 21.3137 2 20.9504 2 20.5715V15.8058C2 15.4269 2.1317 15.0635 2.36612 14.7956C2.60054 14.5277 2.91848 14.3772 3.25 14.3772H6.58333ZM6 17.2382H3.83333C3.76703 17.2382 3.70344 17.2683 3.65656 17.3218C3.60967 17.3754 3.58333 17.4481 3.58333 17.5239V17.9048C3.58333 17.9806 3.60967 18.0533 3.65656 18.1069C3.70344 18.1604 3.76703 18.1905 3.83333 18.1905H6C6.03283 18.1905 6.06534 18.1831 6.09567 18.1688C6.126 18.1544 6.15356 18.1334 6.17678 18.1069C6.19999 18.0803 6.21841 18.0488 6.23097 18.0142C6.24353 17.9795 6.25 17.9423 6.25 17.9048V17.5239C6.25 17.4481 6.22366 17.3754 6.17678 17.3218C6.12989 17.2683 6.0663 17.2382 6 17.2382ZM13.6667 14.3772C13.9982 14.3772 14.3161 14.5277 14.5506 14.7956C14.785 15.0635 14.9167 15.4269 14.9167 15.8058V20.5715C14.9167 20.9504 14.785 21.3137 14.5506 21.5816C14.3161 21.8496 13.9982 22.0001 13.6667 22.0001H10.3333C10.0018 22.0001 9.68387 21.8496 9.44945 21.5816C9.21503 21.3137 9.08333 20.9504 9.08333 20.5715V15.8058C9.08333 15.4269 9.21503 15.0635 9.44945 14.7956C9.68387 14.5277 10.0018 14.3772 10.3333 14.3772H13.6667ZM13.0833 17.2382H10.9167C10.8504 17.2382 10.7868 17.2683 10.7399 17.3218C10.693 17.3754 10.6667 17.4481 10.6667 17.5239V17.9048C10.6667 17.9806 10.693 18.0533 10.7399 18.1069C10.7868 18.1604 10.8504 18.1905 10.9167 18.1905H13.0833C13.1496 18.1905 13.2132 18.1604 13.2601 18.1069C13.307 18.0533 13.3333 17.9806 13.3333 17.9048V17.5239C13.3333 17.4481 13.307 17.3754 13.2601 17.3218C13.2132 17.2683 13.1496 17.2382 13.0833 17.2382ZM20.75 14.3772C21.0815 14.3772 21.3995 14.5277 21.6339 14.7956C21.8683 15.0635 22 15.4269 22 15.8058V20.5715C22 20.9504 21.8683 21.3137 21.6339 21.5816C21.3995 21.8496 21.0815 22.0001 20.75 22.0001H17.4167C17.0851 22.0001 16.7672 21.8496 16.5328 21.5816C16.2984 21.3137 16.1667 20.9504 16.1667 20.5715V15.8058C16.1667 15.4269 16.2984 15.0635 16.5328 14.7956C16.7672 14.5277 17.0851 14.3772 17.4167 14.3772H20.75ZM20.1667 17.2382H18C17.9337 17.2382 17.8701 17.2683 17.8232 17.3218C17.7763 17.3754 17.75 17.4481 17.75 17.5239V17.9048C17.75 17.9806 17.7763 18.0533 17.8232 18.1069C17.8701 18.1604 17.9337 18.1905 18 18.1905H20.1667C20.233 18.1905 20.2966 18.1604 20.3434 18.1069C20.3903 18.0533 20.4167 17.9806 20.4167 17.9048V17.5239C20.4167 17.4481 20.3903 17.3754 20.3434 17.3218C20.2966 17.2683 20.233 17.2382 20.1667 17.2382Z" fill="#25314C"/>
</svg>
