<svg width="18" height="18" viewBox="0 0 18 18" xmlns="http://www.w3.org/2000/svg">
<path d="M2.8125 3.08692H7.23215L9.56252 4.94398H15.1875V3.81897H9.95595L7.62559 1.96191L2.8125 1.96191V3.08692Z"/>
<path d="M2.8125 4.94396C2.19118 4.94396 1.6875 5.44764 1.6875 6.06896V14.625C1.6875 15.2463 2.19118 15.75 2.8125 15.75L15.1875 15.75C15.8088 15.75 16.3125 15.2463 16.3125 14.625V7.92602C16.3125 7.30469 15.8088 6.80101 15.1875 6.80101H9.19673L6.86637 4.94395L2.8125 4.94396ZM2.8125 6.06896L6.47294 6.06895L8.8033 7.92602H15.1875V14.625L2.8125 14.625V6.06896Z" />
</svg>
