<svg width="14" height="14" viewBox="0 0 14 14" xmlns="http://www.w3.org/2000/svg">
<g clip-path="url(#clip0_111_93370)">
<path fill-rule="evenodd" clip-rule="evenodd" d="M13.2712 7.44949C13.2712 7.48751 13.271 7.52523 13.2707 7.56266C13.271 7.56962 13.2712 7.57662 13.2712 7.58366C13.2712 7.59405 13.2708 7.60435 13.2701 7.61456C13.2572 8.57198 13.124 9.33409 12.6243 9.83289C12.0964 10.3598 11.2754 10.477 10.2437 10.477H7.43783V12.3962H9.62533C9.86695 12.3962 10.0628 12.592 10.0628 12.8337C10.0628 13.0753 9.86695 13.2712 9.62533 13.2712H7.00132L7.00033 13.2712L6.99933 13.2712H4.37533C4.1337 13.2712 3.93783 13.0753 3.93783 12.8337C3.93783 12.592 4.1337 12.3962 4.37533 12.3962H6.56283V10.477H3.75763C2.72543 10.4799 1.90446 10.3629 1.37636 9.83581C0.875516 9.3359 0.742828 8.57153 0.730479 7.61328C0.729825 7.60349 0.729492 7.59361 0.729492 7.58366C0.729492 7.57692 0.729645 7.57021 0.729946 7.56354C0.729639 7.52774 0.729492 7.49166 0.729492 7.45533V3.75699C0.729492 2.72445 0.848375 1.90377 1.37607 1.37607C1.90377 0.848375 2.72445 0.729492 3.75699 0.729492H10.2378C11.2731 0.729492 12.0951 0.848325 12.6236 1.37578C13.1523 1.90353 13.2712 2.72449 13.2712 3.75699V7.44949ZM1.60449 3.75699C1.60449 2.7187 1.74519 2.24439 1.99479 1.99479C2.24439 1.74519 2.7187 1.60449 3.75699 1.60449H10.2378C11.2792 1.60449 11.7551 1.74524 12.0054 1.99508C12.2554 2.24462 12.3962 2.71866 12.3962 3.75699V7.14616H1.60449V3.75699ZM1.62165 8.02116H12.3787C12.3339 8.67581 12.2043 9.01585 12.0062 9.21359C11.7568 9.4625 11.2828 9.60199 10.2437 9.60199L3.75699 9.60199L3.75576 9.60199C2.7174 9.60492 2.24359 9.46514 1.9945 9.21651C1.7959 9.01828 1.66616 8.67708 1.62165 8.02116Z" />
</g>
<defs>
<clipPath id="clip0_111_93370">
<rect width="14" height="14" />
</clipPath>
</defs>
</svg>
