<svg width="24" height="24" viewBox="0 0 24 24" xmlns="http://www.w3.org/2000/svg">
<path d="M10.5 7.5C10.5 8.052 10.052 8.5 9.5 8.5C8.948 8.5 8.5 8.052 8.5 7.5C8.5 6.948 8.948 6.5 9.5 6.5C10.052 6.5 10.5 6.948 10.5 7.5ZM6.5 6.5C5.948 6.5 5.5 6.948 5.5 7.5C5.5 8.052 5.948 8.5 6.5 8.5C7.052 8.5 7.5 8.052 7.5 7.5C7.5 6.948 7.052 6.5 6.5 6.5Z" fill="#25314C"/>
<path d="M9.5 15.5C8.948 15.5 8.5 15.948 8.5 16.5C8.5 17.052 8.948 17.5 9.5 17.5C10.052 17.5 10.5 17.052 10.5 16.5C10.5 15.948 10.052 15.5 9.5 15.5ZM6.5 15.5C5.948 15.5 5.5 15.948 5.5 16.5C5.5 17.052 5.948 17.5 6.5 17.5C7.052 17.5 7.5 17.052 7.5 16.5C7.5 15.948 7.052 15.5 6.5 15.5Z" fill="#25314C"/>
<path opacity="0.4" fill-rule="evenodd" clip-rule="evenodd" d="M14.5313 12H6C4 12 3 13 3 15V18C3 20 4 21 6 21H14.5313C13.2856 19.9006 12.5 18.292 12.5 16.5C12.5 14.708 13.2856 13.0994 14.5313 12Z" fill="#25314C"/>
<path opacity="0.4" fill-rule="evenodd" clip-rule="evenodd" d="M16.0983 11H6C4 11 3 10 3 8V5C3 3 4 2 6 2H18C20 2 21 3 21 5V8C21 9.29604 20.5801 10.1721 19.7402 10.6283C19.34 10.5442 18.9252 10.5 18.5 10.5C17.646 10.5 16.8337 10.6784 16.0983 11Z" fill="#25314C"/>
<circle opacity="0.4" cx="18.5" cy="16.5" r="4" fill="#25314C"/>
<path d="M22 21.75C22 22.164 21.664 22.5 21.25 22.5H16.25C15.836 22.5 15.5 22.164 15.5 21.75C15.5 21.336 15.836 21 16.25 21H21.25C21.664 21 22 21.336 22 21.75Z" fill="#25314C"/>
<circle cx="18.5" cy="16.5" r="1.5" fill="#25314C"/>
</svg>
