<svg width="128" height="128" viewBox="0 0 128 128" xmlns="http://www.w3.org/2000/svg">
<path d="M3.55999 54.918C3.35999 54.918 3.15999 54.878 2.95999 54.878C1.27999 54.558 0.159987 52.918 0.519987 51.238C2.99999 38.558 9.15999 27.078 18.36 17.918C27.56 8.75805 39.08 2.63804 51.76 0.198045C53.44 -0.121955 55.08 0.998044 55.4 2.63804C55.72 4.27804 54.6 5.95805 52.96 6.27805C41.52 8.51805 31.08 14.038 22.76 22.278C14.44 30.518 8.79999 40.918 6.59999 52.358C6.31999 53.878 4.95999 54.918 3.55999 54.918ZM53.36 127.518C53.2 127.518 53 127.478 52.84 127.478C26.24 122.878 5.11999 101.918 0.319987 75.398C-1.26958e-05 73.718 1.11999 72.078 2.79999 71.798C4.43999 71.4781 6.07999 72.598 6.39999 74.278C10.76 98.278 29.84 117.198 53.88 121.358C55.56 121.638 56.68 123.278 56.4 124.918C56.16 126.438 54.88 127.518 53.36 127.518ZM74.36 127.558C72.88 127.558 71.56 126.478 71.28 124.958C71 123.278 72.12 121.678 73.84 121.398C85.88 119.398 96.76 113.718 105.44 105.038C114.08 96.398 119.72 85.438 121.72 73.438C122 71.758 123.6 70.638 125.28 70.878C126.96 71.1581 128.08 72.758 127.84 74.438C125.6 87.718 119.4 99.8381 109.84 109.438C100.28 119.038 88.2 125.278 74.92 127.558C74.68 127.518 74.52 127.558 74.36 127.558ZM124.6 55.758C123.12 55.758 121.8 54.718 121.56 53.198C119.48 41.518 113.88 30.878 105.48 22.398C97.04 13.958 86.44 8.31804 74.76 6.15804C73.08 5.83804 71.96 4.23804 72.28 2.55804C72.6 0.878044 74.2 -0.241956 75.88 0.078044C88.8 2.47804 100.56 8.71804 109.84 18.038C119.16 27.398 125.36 39.198 127.68 52.118C128 53.798 126.88 55.398 125.2 55.718C125 55.758 124.8 55.758 124.6 55.758Z" />
</svg>
