<svg width="14" height="14" viewBox="0 0 14 14" xmlns="http://www.w3.org/2000/svg">
<path d="M0.962891 6.9125C0.962891 3.57811 3.66593 0.875046 7.00031 0.875C10.3347 0.875 13.0379 3.57808 13.0379 6.9125V7.0875C13.0379 10.4219 10.3348 13.125 7.00039 13.125C3.66601 13.125 0.962891 10.4219 0.962891 7.0875V6.9125ZM12.1512 7.4375H9.52637C9.44198 9.11661 8.8714 10.7758 7.81464 12.1862C10.1663 11.8135 11.9895 9.85301 12.1512 7.4375ZM9.52637 6.5625H12.1512C11.9895 4.14699 10.1663 2.18645 7.81464 1.81385C8.8714 3.22416 9.44198 4.88339 9.52637 6.5625ZM8.65014 6.5625C8.56326 5.00914 8.01332 3.47684 7.00031 2.19015C5.98729 3.47684 5.43735 5.00914 5.35047 6.5625H8.65014ZM4.47424 7.4375H1.84957C2.01128 9.85295 3.83436 11.8134 6.18595 12.1861C5.1292 10.7758 4.55863 9.1166 4.47424 7.4375ZM4.47424 6.5625C4.55863 4.8834 5.1292 3.22418 6.18595 1.81388C3.83436 2.18656 2.01128 4.14705 1.84957 6.5625H4.47424ZM8.65014 7.4375H5.35047C5.43735 8.99086 5.98729 10.5232 7.00031 11.8098C8.01332 10.5232 8.56326 8.99086 8.65014 7.4375Z"/>
</svg>
