<svg width="24" height="24" viewBox="0 0 24 24" xmlns="http://www.w3.org/2000/svg">
<path opacity="0.4" d="M15.079 18.541L13.0601 20.56C12.4741 21.146 11.524 21.146 10.939 20.56L8.92004 18.541C8.39204 18.013 7.55598 17.954 6.95898 18.402L5.59998 19.421C4.94098 19.915 4 19.445 4 18.621V5.37798C4 4.55398 4.94098 4.08399 5.59998 4.57799L6.95898 5.59697C7.55598 6.04497 8.39204 5.98599 8.92004 5.45799L10.939 3.43898C11.525 2.85298 12.4751 2.85298 13.0601 3.43898L15.079 5.45799C15.607 5.98599 16.443 6.04497 17.04 5.59697L18.399 4.57799C19.058 4.08399 19.999 4.55398 19.999 5.37798V18.621C19.999 19.445 19.058 19.915 18.399 19.421L17.04 18.402C16.443 17.954 15.607 18.013 15.079 18.541Z"/>
<path d="M9.50061 15.25C9.30861 15.25 9.11658 15.177 8.97058 15.03C8.67758 14.737 8.67758 14.262 8.97058 13.969L13.9706 8.96899C14.2636 8.67599 14.7386 8.67599 15.0316 8.96899C15.3246 9.26199 15.3246 9.737 15.0316 10.03L10.0316 15.03C9.88462 15.177 9.69261 15.25 9.50061 15.25ZM10.5206 9.5C10.5206 8.948 10.0736 8.5 9.52063 8.5H9.51062C8.95862 8.5 8.51562 8.948 8.51562 9.5C8.51562 10.052 8.96863 10.5 9.52063 10.5C10.0726 10.5 10.5206 10.052 10.5206 9.5ZM15.5206 14.5C15.5206 13.948 15.0736 13.5 14.5206 13.5H14.5106C13.9586 13.5 13.5156 13.948 13.5156 14.5C13.5156 15.052 13.9686 15.5 14.5206 15.5C15.0726 15.5 15.5206 15.052 15.5206 14.5Z" />
</svg>
