<svg width="16" height="17" viewBox="0 0 16 17" xmlns="http://www.w3.org/2000/svg">
<g clip-path="url(#clip0_2379_211378)">
<path d="M7.99684 1.51335C9.21668 1.51217 10.3871 1.99523 11.251 2.85643C12.115 3.71762 12.6017 4.88651 12.6044 6.10635C12.6044 6.14056 12.6058 6.17539 12.6082 6.20927C12.6582 6.93762 12.5073 7.79168 12.1596 8.74914C11.8506 9.60035 11.3862 10.5322 10.779 11.5186C9.80471 13.1035 8.67768 14.4841 7.95804 15.308C7.25266 14.5719 6.16141 13.33 5.21567 11.8186C4.62349 10.8721 4.16764 9.9441 3.86047 9.06011C3.5077 8.04486 3.34857 7.07759 3.38752 6.18552C3.3891 6.14911 3.38942 6.11206 3.38847 6.07469C3.35759 4.90522 3.80284 3.78753 4.64012 2.92792C5.07707 2.48027 5.59913 2.12451 6.17559 1.88158C6.75206 1.63865 7.37128 1.51345 7.99684 1.51335ZM7.99684 0.5C4.89947 0.5 2.29548 3.00725 2.37591 6.10129V6.14135C2.18369 10.5458 6.13607 14.9187 7.52468 16.3138C7.58534 16.3748 7.6578 16.4227 7.73764 16.4547C7.81747 16.4867 7.903 16.502 7.98897 16.4998C8.07494 16.4976 8.15956 16.4778 8.23763 16.4417C8.31571 16.4057 8.3856 16.3541 8.44303 16.29C9.81596 14.7608 13.8793 9.89533 13.6206 6.13961C13.6206 6.12741 13.6193 6.11522 13.6193 6.10303C13.6089 3.00693 11.0958 0.5 7.99684 0.5Z"/>
<path d="M8.0055 3.69145C8.58793 3.69149 9.15233 3.89347 9.60254 4.26298C10.0527 4.63249 10.3609 5.14666 10.4745 5.7179C10.5881 6.28915 10.5002 6.88211 10.2256 7.39576C9.95105 7.90942 9.50688 8.31199 8.96879 8.53488C8.4307 8.75777 7.83197 8.7872 7.27461 8.61815C6.71726 8.44909 6.23576 8.09202 5.91215 7.60777C5.58855 7.12351 5.44286 6.54203 5.49991 5.9624C5.55695 5.38277 5.81321 4.84085 6.22501 4.42898C6.45829 4.19443 6.73577 4.00848 7.04139 3.88188C7.34701 3.75529 7.6747 3.69056 8.0055 3.69145ZM8.0055 2.6781C6.05512 2.6781 4.47461 4.25908 4.47461 6.20899C4.47461 8.1589 6.05559 9.73988 8.0055 9.73988C9.9554 9.73988 11.5364 8.1589 11.5364 6.20899C11.5364 4.25908 9.9554 2.6781 8.0055 2.6781Z"/>
</g>
<defs>
<clipPath id="clip0_2379_211378">
<rect width="16" height="16" fill="white" transform="translate(0 0.5)"/>
</clipPath>
</defs>
</svg>
