<svg width="25" height="24" viewBox="0 0 25 24" xmlns="http://www.w3.org/2000/svg">
<path opacity="0.4" d="M18.5 7.99997V11.502C18.5 11.581 18.4691 11.657 18.4131 11.714L12.436 17.725C12.157 18.005 12 18.385 12 18.781V19.701C12 19.867 11.866 20.001 11.7 20.001H6.5C4.5 20.001 3.5 19.001 3.5 17.001V5.00098C3.5 3.00098 4.5 2.00098 6.5 2.00098H12.5V5.00098C12.5 6.65798 13.843 8.00098 15.5 8.00098H18.5V7.99997Z" />
<path d="M15.5 8H18.5L12.5 2V5C12.5 7 13.5 8 15.5 8Z" />
<path d="M14.5 11.75H7.5C7.086 11.75 6.75 11.414 6.75 11C6.75 10.586 7.086 10.25 7.5 10.25H14.5C14.914 10.25 15.25 10.586 15.25 11C15.25 11.414 14.914 11.75 14.5 11.75ZM12.25 15C12.25 14.586 11.914 14.25 11.5 14.25H7.5C7.086 14.25 6.75 14.586 6.75 15C6.75 15.414 7.086 15.75 7.5 15.75H11.5C11.914 15.75 12.25 15.414 12.25 15Z" />
<path d="M17.48 14.78L19.72 17.02L15.72 21H13.5V18.78L17.48 14.78ZM21.24 14.25L20.25 13.2601C19.9 12.9101 19.34 12.9101 18.99 13.2601L18.1799 14.08L20.4199 16.3201L21.24 15.5101C21.59 15.1601 21.59 14.6 21.24 14.25Z" />
</svg>
