<svg width="14" height="14" viewBox="0 0 14 14" xmlns="http://www.w3.org/2000/svg">
<path fill-rule="evenodd" clip-rule="evenodd" d="M2.4059 1.67188C2.98315 1.04637 3.84343 0.729004 4.95283 0.729004H9.03616C10.1326 0.729004 10.9924 1.04724 11.5735 1.67015C12.1495 2.28762 12.3903 3.13907 12.3903 4.08317V4.6665C12.3903 5.22896 11.932 5.68734 11.3695 5.68734C11.2903 5.68734 11.2237 5.75396 11.2237 5.83317V7.10484C11.2237 7.29549 11.2983 7.47659 11.4397 7.61798L11.922 8.10026C12.2288 8.40026 12.3962 8.81073 12.3962 9.234V9.9165C12.3962 10.8606 12.1553 11.7121 11.5793 12.3295C10.9982 12.9524 10.1385 13.2707 9.04199 13.2707H4.95866C3.8467 13.2707 2.98497 12.9535 2.40686 12.328C1.83456 11.7089 1.60449 10.8565 1.60449 9.9165V4.08317C1.60449 3.14315 1.83456 2.29098 2.4059 1.67188ZM3.04892 2.2653C2.67818 2.66703 2.47949 3.27319 2.47949 4.08317V9.9165C2.47949 10.7265 2.67817 11.3325 3.04942 11.7341C3.30918 12.0152 3.68575 12.2309 4.22202 12.3322L4.21782 11.0846L4.21781 11.0832C4.21781 10.194 4.93286 9.479 5.82198 9.479H8.16116C9.04521 9.479 9.75731 10.1939 9.76531 11.0734L9.77792 12.3302C10.3022 12.2282 10.6775 12.0135 10.9395 11.7327C11.3158 11.3293 11.5212 10.7224 11.5212 9.9165V9.234C11.5212 9.03998 11.4443 8.85643 11.3093 8.72496L11.3051 8.72089L10.821 8.2367C10.519 7.93476 10.3487 7.53252 10.3487 7.10484V5.83317C10.3487 5.27071 10.807 4.81234 11.3695 4.81234C11.4487 4.81234 11.5153 4.74571 11.5153 4.6665V4.08317C11.5153 3.27727 11.3099 2.67038 10.9336 2.26702C10.5813 1.88929 10.024 1.63124 9.1748 1.60603L9.15273 2.87746C9.14853 3.11904 8.94929 3.31149 8.7077 3.3073C8.46611 3.3031 8.27366 3.10386 8.27786 2.86227L8.2997 1.604H7.42506L7.40273 2.89494C7.39855 3.13653 7.19931 3.32899 6.95772 3.32481C6.71614 3.32063 6.52368 3.12139 6.52786 2.87981L6.54993 1.604H5.67506L5.65273 2.89494C5.64855 3.13653 5.44931 3.32899 5.20772 3.32481C4.96614 3.32063 4.77368 3.12139 4.77786 2.87981L4.79989 1.60641C3.94398 1.63372 3.39364 1.89177 3.04892 2.2653ZM8.90353 12.3957H5.09723L5.09281 11.0832C5.09316 10.6776 5.41632 10.354 5.82198 10.354H8.16116C8.56045 10.354 8.88668 10.6778 8.89035 11.0817L8.90353 12.3957Z" />
</svg>
