<svg width="20" height="20" viewBox="0 0 20 20" xmlns="http://www.w3.org/2000/svg">
<path d="M6.55947 7.70978C7.19517 7.70978 7.71011 8.22472 7.71011 8.86043C7.71011 9.49613 7.19517 10.0111 6.55947 10.0111C5.92377 10.0111 5.40883 9.49613 5.40883 8.86043C5.40883 8.22472 5.92377 7.70978 6.55947 7.70978ZM10.2347 7.70978C10.8658 7.70978 11.3785 8.22472 11.3785 8.86043C11.3785 9.49613 10.8681 10.0111 10.2347 10.0111C9.60354 10.0111 9.09088 9.49613 9.09088 8.86043C9.09088 8.22472 9.60354 7.70978 10.2347 7.70978ZM13.9099 7.70978C14.5456 7.70978 15.0605 8.22472 15.0605 8.86043C15.0605 9.49613 14.5456 10.0111 13.9099 10.0111C13.2742 10.0111 12.7593 9.49613 12.7593 8.86043C12.7593 8.22472 13.2742 7.70978 13.9099 7.70978ZM18.7289 4.32622C18.713 2.57633 17.3482 1.26164 15.596 1.25708C11.8615 1.24797 8.1248 1.24797 4.39034 1.25708C2.68374 1.26164 1.30298 2.55582 1.28019 4.26242C1.23918 7.19029 1.24146 10.1227 1.27791 13.0506C1.29842 14.8255 2.64045 16.0855 4.41996 16.0924C6.47061 16.0992 8.52126 16.0559 10.5673 16.1197C11.1415 16.1379 11.7613 16.3544 12.2625 16.6506C13.2856 17.2567 14.2403 17.9767 15.3704 18.7514V16.1744C17.5828 15.8759 18.7084 14.8324 18.7266 13.0324C18.7585 10.1295 18.7563 7.22902 18.7289 4.32622Z"/>
</svg>
