<svg width="25" height="24" viewBox="0 0 25 24" xmlns="http://www.w3.org/2000/svg">
<path d="M8.5 15.6V7H6.8999C5.2999 7 4.5 7.79999 4.5 9.39999V19.6C4.5 21.2 5.2999 22 6.8999 22H14.1001C15.7001 22 16.5 21.2 16.5 19.6V18H10.8999C9.2999 18 8.5 17.2 8.5 15.6Z"/>
<path opacity="0.4" d="M18 8C16.333 8 15.5 7.167 15.5 5.5V3H10.8999C9.2999 3 8.5 3.79999 8.5 5.39999V7V15.6C8.5 17.2 9.2999 18 10.8999 18H16.5H18.1001C19.7001 18 20.5 17.2 20.5 15.6V8H18Z"/>
<path d="M15.5 5.5C15.5 7.167 16.333 8 18 8H20.5L15.5 3V5.5Z" />
</svg>
