<svg width="20" height="20" viewBox="0 0 20 20" xmlns="http://www.w3.org/2000/svg">
<path d="M9.99999 5.83375C11.3261 5.83375 12.5978 6.36053 13.5355 7.29822C14.4732 8.2359 15 9.50767 15 10.8337V15.8337H16.6662C16.7784 15.8294 16.8902 15.8477 16.9951 15.8876C17.0999 15.9276 17.1957 15.9882 17.2765 16.066C17.3574 16.1438 17.4217 16.2371 17.4657 16.3404C17.5096 16.4436 17.5323 16.5547 17.5323 16.6669C17.5323 16.7791 17.5096 16.8901 17.4657 16.9934C17.4217 17.0966 17.3574 17.1899 17.2765 17.2677C17.1957 17.3455 17.0999 17.4062 16.9951 17.4461C16.8902 17.486 16.7784 17.5043 16.6662 17.5H3.33374C3.22162 17.5043 3.10977 17.486 3.0049 17.4461C2.90003 17.4062 2.8043 17.3455 2.72344 17.2677C2.64257 17.1899 2.57824 17.0966 2.5343 16.9934C2.49036 16.8901 2.46771 16.7791 2.46771 16.6669C2.46771 16.5547 2.49036 16.4436 2.5343 16.3404C2.57824 16.2371 2.64257 16.1438 2.72344 16.066C2.8043 15.9882 2.90003 15.9276 3.0049 15.8876C3.10977 15.8477 3.22162 15.8294 3.33374 15.8337H4.99999V10.8337C4.99999 9.50767 5.52677 8.2359 6.46446 7.29822C7.40214 6.36053 8.67391 5.83375 9.99999 5.83375ZM9.99999 7.5C9.11582 7.5 8.26787 7.85123 7.64267 8.47643C7.01747 9.10163 6.66624 9.94958 6.66624 10.8337V15.8337H13.3337V10.8337C13.3337 9.94958 12.9825 9.10163 12.3573 8.47643C11.7321 7.85123 10.8842 7.5 9.99999 7.5ZM4.74999 4.41625L5.58374 5.25C5.69763 5.36659 5.77485 5.51401 5.80585 5.67403C5.83685 5.83404 5.82027 5.99963 5.75815 6.15032C5.69604 6.30101 5.59113 6.43019 5.45638 6.52189C5.32163 6.61358 5.16296 6.66377 4.99999 6.66625C4.89042 6.66686 4.7818 6.64587 4.68035 6.60447C4.5789 6.56308 4.4866 6.50209 4.40874 6.425L3.57499 5.59125C3.43997 5.43159 3.36987 5.22702 3.37859 5.01811C3.38731 4.80919 3.47421 4.61118 3.62206 4.46332C3.76992 4.31547 3.96793 4.22857 4.17685 4.21985C4.38576 4.21113 4.59033 4.28123 4.74999 4.41625ZM16.3725 4.4525C16.6812 4.76 16.7 5.2525 16.4162 5.58375L15.5837 6.41625C15.4298 6.57332 15.2199 6.66318 15 6.66625C14.8346 6.66693 14.6727 6.61839 14.535 6.52683C14.3973 6.43526 14.2899 6.3048 14.2265 6.15203C14.1631 5.99926 14.1466 5.83109 14.179 5.66891C14.2115 5.50673 14.2914 5.35786 14.4087 5.24125L15.2412 4.40875C15.4007 4.27234 15.6057 4.20108 15.8154 4.20919C16.0251 4.2173 16.224 4.30418 16.3725 4.4525ZM9.99999 2.5C10.46 2.5 10.8337 2.8725 10.8337 3.33375V4.16625C10.8337 4.38737 10.7459 4.59944 10.5895 4.7558C10.4332 4.91216 10.2211 5 9.99999 5C9.77887 5 9.5668 4.91216 9.41044 4.7558C9.25408 4.59944 9.16624 4.38737 9.16624 4.16625V3.33375C9.16624 2.8725 9.53999 2.5 9.99999 2.5Z"/>
</svg>
