<svg width="16" height="18" viewBox="0 0 16 18" xmlns="http://www.w3.org/2000/svg">
<path opacity="0.4" d="M3.89641 9.62494C4.01552 12.1916 4.84133 14.8083 6.27857 17.1333C2.91178 16.3499 0.346999 13.3249 0.0849609 9.62494H3.89641Z" />
<path opacity="0.4" d="M3.89641 8.37521H0.0849609C0.346999 4.67521 2.91178 1.6502 6.27857 0.866867C4.84133 3.19187 4.01552 5.80854 3.89641 8.37521Z" />
<path d="M8.3991 1.02489C9.90781 3.27489 10.7892 5.85823 10.9163 8.3749H5.08789C5.21494 5.85823 6.09635 3.27489 7.60505 1.02489L7.84326 0.666565H8.1609L8.3991 1.02489Z" />
<path d="M10.9163 9.62494C10.7892 12.1416 9.90781 14.7249 8.3991 16.9749L8.1609 17.3333H7.84326L7.60505 16.9749C6.09635 14.7249 5.21494 12.1416 5.08789 9.62494H10.9163Z" />
<path opacity="0.4" d="M15.9182 9.62494C15.6562 13.3249 13.0914 16.3499 9.72461 17.1333C11.1618 14.8083 11.9877 12.1916 12.1068 9.62494H15.9182Z" />
<path opacity="0.4" d="M12.1068 8.37521C11.9877 5.80854 11.1618 3.19187 9.72461 0.866867C13.0914 1.6502 15.6562 4.67521 15.9182 8.37521H12.1068Z" />
</svg>
