<svg width="24" height="24" viewBox="0 0 24 24" xmlns="http://www.w3.org/2000/svg">
<path opacity="0.4" d="M6 21H18C20 21 21 20 21 18V11C21 9 20 8 18 8H6C4 8 3 9 3 11V18C3 20 4 21 6 21Z" fill="#25314C"/>
<path d="M16 13.75H11C10.586 13.75 10.25 13.414 10.25 13C10.25 12.586 10.586 12.25 11 12.25H16C16.414 12.25 16.75 12.586 16.75 13C16.75 13.414 16.414 13.75 16 13.75ZM16.75 17C16.75 16.586 16.414 16.25 16 16.25H11C10.586 16.25 10.25 16.586 10.25 17C10.25 17.414 10.586 17.75 11 17.75H16C16.414 17.75 16.75 17.414 16.75 17ZM8 12.25C7.586 12.25 7.25 12.586 7.25 13C7.25 13.414 7.586 13.75 8 13.75C8.414 13.75 8.75 13.414 8.75 13C8.75 12.586 8.414 12.25 8 12.25ZM8 16.25C7.586 16.25 7.25 16.586 7.25 17C7.25 17.414 7.586 17.75 8 17.75C8.414 17.75 8.75 17.414 8.75 17C8.75 16.586 8.414 16.25 8 16.25Z" fill="#25314C"/>
<path d="M12.0002 2.24871C12.3602 2.24871 12.7223 2.36071 13.0293 2.58371L17.9412 6.15671C18.2762 6.39971 18.3502 6.86972 18.1062 7.20472C17.8632 7.53872 17.3963 7.61471 17.0583 7.36971L12.1462 3.79772C12.0582 3.73472 11.9413 3.73372 11.8533 3.79772L6.94116 7.36971C6.60416 7.61471 6.13631 7.53872 5.89331 7.20472C5.64931 6.86972 5.72335 6.40071 6.05835 6.15671L10.9702 2.58472C11.2782 2.35972 11.6402 2.24871 12.0002 2.24871Z" fill="#25314C"/>
</svg>
