<svg width="24" height="24" viewBox="0 0 24 24" xmlns="http://www.w3.org/2000/svg">
<path opacity="0.4" d="M17 21H7C5 21 4 20 4 18V6C4 4 5 3 7 3H15.4C15.8 3 16.2 3.2 16.5 3.4L19.6 6.5C19.8 6.8 20 7.2 20 7.6V18C20 20 19 21 17 21Z" />
<path d="M15.5 13H8.5C7.5 13 7 13.5 7 14.5V19.2C7 19.4 7.1 19.5 7.3 19.5H16.7C16.9 19.5 17 19.4 17 19.2V14.5C17 13.5 16.5 13 15.5 13Z" />
<path d="M8.90078 6.5998V9.5998C8.90078 9.9998 8.50078 10.2998 8.10078 10.2998C7.70078 10.2998 7.30078 9.9998 7.30078 9.4998V6.4998C7.30078 6.0998 7.60078 5.69981 8.10078 5.69981C8.60078 5.69981 8.90078 6.1998 8.90078 6.5998Z"/>
<path d="M12.9008 6.5998V9.5998C12.9008 9.9998 12.5008 10.2998 12.1008 10.2998C11.7008 10.2998 11.3008 9.9998 11.3008 9.4998V6.4998C11.3008 6.0998 11.6008 5.69981 12.1008 5.69981C12.6008 5.69981 12.9008 6.1998 12.9008 6.5998Z" />
<path d="M16.9008 6.5998V9.5998C16.9008 9.9998 16.5008 10.2998 16.1008 10.2998C15.7008 10.2998 15.3008 9.9998 15.3008 9.4998V6.4998C15.3008 6.0998 15.6008 5.69981 16.1008 5.69981C16.6008 5.69981 16.9008 6.1998 16.9008 6.5998Z" />
</svg>
