<svg width="25" height="24" viewBox="0 0 25 24" xmlns="http://www.w3.org/2000/svg">
<path opacity="0.4" d="M16.5 5H17.5C19.5 5 20.5 6 20.5 8V18C20.5 20 19.5 21 17.5 21H7.5C5.5 21 4.5 20 4.5 18V8C4.5 6 5.5 5 7.5 5H8.5" />
<path d="M16.5 4.5V5.5C16.5 6.5 16 7 15 7H10C9 7 8.5 6.5 8.5 5.5V4.5C8.5 3.5 9 3 10 3H15C16 3 16.5 3.5 16.5 4.5Z" />
<path d="M15.5 12.75H9.5C9.086 12.75 8.75 12.414 8.75 12C8.75 11.586 9.086 11.25 9.5 11.25H15.5C15.914 11.25 16.25 11.586 16.25 12C16.25 12.414 15.914 12.75 15.5 12.75ZM14.25 16C14.25 15.586 13.914 15.25 13.5 15.25H9.5C9.086 15.25 8.75 15.586 8.75 16C8.75 16.414 9.086 16.75 9.5 16.75H13.5C13.914 16.75 14.25 16.414 14.25 16Z" />
</svg>
