<svg width="25" height="24" viewBox="0 0 25 24" xmlns="http://www.w3.org/2000/svg">
<path opacity="0.4" d="M20.69 17.59L14.1 20.65C13.09 21.12 11.91 21.12 10.9 20.65L4.31 17.59C3.23 17.09 3.23 15.55 4.31 15.05L4.45001 14.99L10.27 17.68C10.97 18.01 11.72 18.18 12.5 18.18C13.28 18.18 14.03 18.01 14.73 17.68L20.55 14.99L20.69 15.05C21.77 15.55 21.77 17.09 20.69 17.59Z" />
<path opacity="0.4" d="M20.69 13.2699L18.77 14.1599L14.1 16.3199C13.59 16.5599 13.05 16.6799 12.5 16.6799C11.95 16.6799 11.41 16.5599 10.9 16.3199L6.23001 14.1599L4.31 13.2699C3.23 12.7699 3.23 11.2299 4.31 10.7199L4.44 10.6599L9.10001 12.8299L10.27 13.3699C10.97 13.6899 11.72 13.8599 12.5 13.8599C13.28 13.8599 14.03 13.6899 14.73 13.3699L15.9 12.8299L20.56 10.6599L20.69 10.7199C21.77 11.2299 21.77 12.7699 20.69 13.2699Z" />
<path d="M20.69 8.95001L20.56 9.01001L19.67 9.42001L18.78 9.84L14.1 12.01C13.59 12.24 13.05 12.36 12.5 12.36C11.95 12.36 11.41 12.24 10.9 12.01L6.22 9.84L5.32999 9.42001L4.44 9.01001L4.31 8.95001C3.23 8.45001 3.23 6.91 4.31 6.41L10.9 3.35001C11.41 3.12001 11.95 3 12.5 3C13.05 3 13.59 3.12001 14.1 3.35001L20.69 6.41C21.77 6.91 21.77 8.45001 20.69 8.95001Z" />
</svg>
