<?xml version="1.0" standalone="no"?><!DOCTYPE svg PUBLIC "-//W3C//DTD SVG 1.1//EN" "http://www.w3.org/Graphics/SVG/1.1/DTD/svg11.dtd"><svg class="icon" width="200px" height="200.00px" viewBox="0 0 1024 1024" version="1.1" xmlns="http://www.w3.org/2000/svg"><path d="M0 0h1024v1024H0z" fill="#FFFFFF" /><path d="M450.56 483.456l28.288 28.16-28.288 28.032H252.16v93.44L130.944 511.36 252.096 391.68v91.392l198.464 0.32z" fill="#932279" /><path d="M540.544 450.56l-28.032 28.288-28.032-28.288V252.032H391.04l121.856-121.088L632.32 252.032H540.8L540.544 450.56z" fill="#EFA724" /><path d="M573.44 540.544l-28.16-28.032 28.16-28.032h198.656V391.04l121.088 121.792-121.088 119.424V540.864L573.44 540.544z" fill="#262577" /><path d="M483.456 573.44l28.16-28.16 28.032 28.16v198.592h93.44L511.36 893.184 391.68 772.032h91.392l0.32-198.592zM244.864 244.864h241.28v241.28h-241.28v-241.28z" fill="#9CCD2A" /><path d="M537.856 244.864h241.28v241.28h-241.28v-241.28z" fill="#932279" /><path d="M537.856 537.856h241.28v241.28h-241.28v-241.28z" fill="#EFA724" /><path d="M244.864 537.856h241.28v241.28h-241.28v-241.28z" fill="#262577" /></svg>