<?xml version="1.0" standalone="no"?><!DOCTYPE svg PUBLIC "-//W3C//DTD SVG 1.1//EN" "http://www.w3.org/Graphics/SVG/1.1/DTD/svg11.dtd"><svg class="icon" width="200px" height="200.00px" viewBox="0 0 1024 1024" version="1.1" xmlns="http://www.w3.org/2000/svg"><path d="M0 0h1024v1024H0z" fill="#FFFFFF" /><path d="M896 512a384 384 0 0 0-768-0.32v297.024c0 48.256 39.04 87.04 87.296 87.04H512c212.096 0 384-171.648 384-383.744z" fill="#294172" /><path d="M664.512 224.512a146.752 146.752 0 0 0-39.872-5.376A180.288 180.288 0 0 0 444.416 399.36v95.68H369.024a41.984 41.984 0 1 0-0.64 84.032h62.592c7.488 0 13.44 5.888 13.44 13.376v82.56c0 52.352-42.624 94.976-95.04 94.976-17.92 0-22.08-2.368-34.304-2.368-25.6 0-42.56 16.96-42.56 40.512 0 19.328 16.64 36.032 36.928 41.408 14.016 3.584 24.704 5.376 39.936 5.376a180.288 180.288 0 0 0 180.224-180.288V579.008h75.392a41.984 41.984 0 1 0 0.64-84.032h-62.656a13.376 13.376 0 0 1-13.44-13.376v-82.56c0-52.352 42.688-94.976 95.104-94.976 17.856 0 22.016 2.368 34.24 2.368 25.6 0 42.624-16.96 42.624-40.512 0-19.328-16.704-36.032-36.992-41.408z" fill="#FFFFFF" /><path d="M829.568 829.568v-16.128l-7.104 16.704-7.168-16.64v16h-4.16v-25.28h4.16l7.104 16.128 6.848-16.128h4.48v25.344h-4.16z m-29.76-21.12v20.8h-4.224v-20.864h-7.104v-4.16h18.432v4.16" fill="#3C6EB4" /></svg>