<?xml version="1.0" standalone="no"?><!DOCTYPE svg PUBLIC "-//W3C//DTD SVG 1.1//EN" "http://www.w3.org/Graphics/SVG/1.1/DTD/svg11.dtd"><svg class="icon" width="200px" height="200.00px" viewBox="0 0 1024 1024" version="1.1" xmlns="http://www.w3.org/2000/svg"><path d="M0 0h1024v1024H0z" fill="#FFFFFF" /><path d="M671.36 835.328l73.152-70.72-94.08 10.112 20.864 60.608h0.064z" fill="#157FFE" /><path d="M572.032 896l99.264-60.672-20.8-60.608L572.032 896z" fill="#072F6D" /><path d="M676.544 896l-5.248-60.672L572.16 896h104.448z" fill="#064BA6" /><path d="M535.488 800l76.288-58.176L566.784 704l-31.296 96z" fill="#024EA7" /><path d="M535.552 840.384l-36.672-55.552 36.672 15.168v40.384z" fill="#134C9B" /><path d="M566.848 704l-31.36 96-36.608-15.232L566.848 704z" fill="#002D6C" /><path d="M535.488 840.384H436.16l62.72-55.552 36.608 55.552z" fill="#0B2C61" /><path d="M619.136 643.392l83.584-55.68 5.12 96.064-88.704-40.384z" fill="#0F4EAC" /><path d="M650.432 572.672l-31.36 70.656 83.648-55.552-52.288-15.168v0.064z" fill="#1EDEE8" /><path d="M744.512 517.12l-41.792 70.656-52.288-15.168 94.08-55.488z" fill="#0293F8" /><path d="M775.808 532.16l-73.152 55.68 41.856-70.72 31.296 15.04z" fill="#0A4DAA" /><path d="M801.92 431.168l36.544 45.44-62.72 55.552-31.296-15.104 57.472-85.888z" fill="#0282F1" /><path d="M895.936 400.832l-57.472 75.84-36.48-45.504L896 400.832h-0.128z" fill="#2DDDFB" /><path d="M775.808 532.16l41.792 10.176 20.928-65.664-62.72 55.488z" fill="#034DAB" /><path d="M875.008 517.12l-57.472 25.216 20.928-65.664 36.544 40.384z" fill="#0583E1" /><path d="M896 400.832l-20.864 116.224-36.608-40.384 57.408-75.84z" fill="#0897FF" /><path d="M650.432 572.672l-130.624 45.44V517.12l130.56 55.488v0.064z" fill="#2EDCFC" /><path d="M394.432 542.336l125.376 75.776H399.68l-5.248-75.776z" fill="#32D4FB" /><path d="M519.808 517.12v100.992l-125.44-75.776 125.44-25.216z" fill="#0594FE" /><path d="M242.944 663.552l156.736-45.44-5.248-75.776-151.488 121.216z" fill="#0D82E4" /><path d="M201.152 729.28l41.792-65.664-57.536-35.456 15.744 101.12z" fill="#0199EC" /><path d="M394.432 542.336l20.864-96 104.512 70.72-125.44 25.28z" fill="#047DEB" /><path d="M222.08 522.048l20.8 141.568 151.552-121.28-172.352-20.288z" fill="#0197F9" /><path d="M185.408 628.16l57.6 35.456-20.928-141.568-36.672 106.112z" fill="#0581E3" /><path d="M128 496.832l94.08 25.28-36.608 106.048L128 496.832z" fill="#064BAC" /><path d="M326.528 441.216L222.08 522.112l172.352 20.224-67.84-101.12z" fill="#31D9FB" /><path d="M415.36 446.4l-20.992 95.936-67.84-101.12 88.768 5.12h0.064z" fill="#0298F2" /><path d="M222.08 426.048l104.448 15.168L222.08 522.048v-96z" fill="#0199FC" /><path d="M128 496.832l94.08 25.216v-96L128 496.896v-0.064z" fill="#0080E5" /><path d="M185.472 405.888L128 496.768l94.08-70.72-36.608-20.16z" fill="#004AB6" /><path d="M227.2 320l-41.792 85.888 36.672 20.224L227.2 320z" fill="#069DFA" /><path d="M326.528 441.216L222.08 426.048l5.12-105.92 99.328 121.152z" fill="#0780E2" /><path d="M415.36 390.72v55.616l-88.832-5.12 88.768-50.496h0.064z" fill="#0C4FA3" /><path d="M227.2 320l99.392 121.216-20.928-171.712L227.264 320z" fill="#0282E0" /><path d="M357.824 330.112l-31.36 111.104-20.864-171.712 52.224 60.608z" fill="#054CAB" /><path d="M477.952 355.392l-62.72 35.392v55.424l62.72-90.88z" fill="#2BD9FF" /><path d="M357.824 330.112l-31.296 111.104 151.424-85.824-120.128-25.28z" fill="#0A9AF6" /><path d="M451.904 249.28l-94.08 80.832 120.128 25.28-26.048-106.112z" fill="#2DE1FF" /><path d="M305.6 269.44l52.224 60.672 20.928-96-73.152 35.392V269.44z" fill="#019BFF" /><path d="M399.616 173.44l-94.08 96 73.28-35.328 20.8-60.608z" fill="#0F78DE" /><path d="M389.12 228.992l-10.368 5.12 20.864-60.608-10.368 55.488H389.12z" fill="#54CFF8" /><path d="M451.904 249.28L493.696 128 446.72 213.952l5.248 35.328z" fill="#47C6E2" /><path d="M399.616 239.168l-20.8-5.12-20.992 96.064 94.08-80.832-51.2-10.624-1.088 0.512z" fill="#1577EC" /><path d="M399.616 239.232l52.288 10.048-5.248-35.328-47.04 25.28z" fill="#0096FF" /><path d="M493.76 128L402.752 235.136l43.968-21.184L493.76 128zM404.608 239.872h-2.304l-2.304 2.304" fill="#0D88E0" /><path d="M400.704 238.72l45.952-24.768-43.904 21.184-2.56 3.584h0.512z" fill="#0D88E0" /><path d="M398.656 238.08h-1.088l0.512-0.448-8.832-8.64-10.496 5.12 19.84 4.032z m0.96 1.472l-0.96-1.024-19.904-4.48M402.56 241.28l-2.304-2.304-2.304 2.304h4.608z" fill="#47C6E2" /><path d="M185.472 825.216l62.72 40.512H148.864l36.48-40.512z" fill="#092C73" /><path d="M263.872 774.72l-15.744 90.944-62.72-40.384 78.464-50.56z" fill="#014CB0" /><path d="M201.152 729.216l62.72 45.504-78.464 50.56 36.672-45.44-20.928-50.624z" fill="#127BDA" /><path d="M243.008 663.552l-41.792 65.664 62.72 45.504-20.928-111.168z" fill="#0A2A6D" /><path d="M399.68 618.112l-135.808 156.608-20.928-111.168 156.736-45.44z" fill="#0748A8" /><path d="M389.12 719.104l10.56-100.992-83.648 96.448 73.216 4.608H389.12z" fill="#04297A" /><path d="M504.128 663.552l-114.88 55.552 10.368-100.992 104.512 45.44z" fill="#0081DC" /><path d="M519.744 618.112l-15.616 45.44-104.512-45.44h120.128z" fill="#034DAB" /><path d="M619.072 643.328l-114.88 20.224 15.552-45.44 99.328 25.216z" fill="#0581E4" /><path d="M650.432 572.672l-31.36 70.656-99.264-25.216 130.56-45.44z" fill="#0197F8" /><path d="M504.128 663.552l62.72 40.384 52.224-60.608-114.88 20.224h-0.064z" fill="#0046A3" /><path d="M707.84 683.776l-88.704-40.384-52.288 60.544 141.12-20.16h-0.064z" fill="#0297FE" /><path d="M650.432 774.72l57.472-90.88-141.056 20.096 83.584 70.784z" fill="#0681E8" /><path d="M744.512 764.608l-36.672-80.832-57.408 90.944 94.08-10.112z" fill="#074AA5" /></svg>