<?xml version="1.0" standalone="no"?><!DOCTYPE svg PUBLIC "-//W3C//DTD SVG 1.1//EN" "http://www.w3.org/Graphics/SVG/1.1/DTD/svg11.dtd"><svg t="1701681318214" class="icon" viewBox="0 0 1024 1024" version="1.1" xmlns="http://www.w3.org/2000/svg" p-id="14453" xmlns:xlink="http://www.w3.org/1999/xlink" width="200" height="200"><path d="M524.8 242.56a47.936 47.936 0 0 0-19.52 20.032 42.432 42.432 0 0 0 1.792 32.384 52.032 52.032 0 0 0 22.656 27.2c5.504 3.136 11.584 5.12 18.304 6.208a42.24 42.24 0 0 0 19.584-3.072 38.528 38.528 0 0 0 16.512-14.912 58.112 58.112 0 0 0 1.856-45.76 42.24 42.24 0 0 0-20.224-22.08 56.512 56.512 0 0 0-15.872-5.12 43.968 43.968 0 0 0-16.512 1.536c-3.072 1.024-6.08 2.56-8.576 3.584z" fill="#FFFFFF" p-id="14454"></path><path d="M816.448 593.408a329.216 329.216 0 0 0-24.448-70.848 193.664 193.664 0 0 0-29.952-47.808c-12.8-14.336-28.736-26.176-40.96-40.576-6.72-7.168-12.224-15.872-18.944-23.04-3.072-4.672-5.504-9.792-7.936-14.464-7.936-14.848-15.936-30.272-25.728-44.672a46.08 46.08 0 0 0-4.864-6.656c-1.28-13.888-3.072-27.264-3.648-41.088a338.56 338.56 0 0 0-7.936-82.24 137.728 137.728 0 0 0-19.584-36.928 130.88 130.88 0 0 0-37.952-34.432A162.176 162.176 0 0 0 510.144 128a152.896 152.896 0 0 0-64.192 12.288 110.72 110.72 0 0 0-48.32 42.112c-9.792 17.984-15.296 37.504-15.296 57.024-0.64 19.52 1.28 38.528 2.432 58.048 0.64 20.032 0.64 40.064 2.496 60.16 0.64 6.656 1.792 12.8 1.216 19.456v10.24a416.512 416.512 0 0 1-34.24 42.688c-8.576 9.28-17.728 18.56-26.304 27.776a174.144 174.144 0 0 0-29.376 35.904c-5.504 11.328-9.152 23.168-12.8 34.944l-0.64 1.024a260.672 260.672 0 0 1-18.304 39.552c-0.64 1.024-1.28 2.56-1.92 3.584-4.224 7.68-9.088 15.424-14.016 22.656l-5.504 8.704c-3.648 5.12-6.72 10.816-9.152 15.936-1.856 3.072-2.432 6.656-3.648 10.24-1.28 7.68-0.64 14.912 1.792 22.08 0.64 2.112 1.28 3.648 1.856 5.696 2.432 5.12 4.864 10.752 7.936 15.36 1.28 2.112 3.072 4.672 4.288 6.72l1.28 1.536c1.152 2.048 3.008 4.096 4.224 6.144 1.856 2.56 3.648 4.608 5.504 7.232v0.512c1.856 2.048 3.648 4.608 6.08 6.656 7.36 24.64 21.44 47.744 40.384 67.84-3.072 4.096-5.504 8.704-8.576 12.8-10.368 12.8-18.944 26.24-25.664 40.576a36.096 36.096 0 0 0-1.856 22.592c1.856 7.68 6.144 14.4 13.44 19.52 4.928 3.136 10.432 5.12 16.512 6.208 6.144 1.024 11.648 1.536 17.792 1.536 22.592-1.536 45.248-5.12 66.56-11.328 12.928-3.072 26.368-5.632 39.808-7.68 14.08-2.56 27.52-4.096 42.24-4.608 3.584 0 6.656 0 10.368-0.512 9.728 1.024 18.944 1.024 28.736 1.024h3.648c2.432 0 4.864 0.512 7.36 0.512 17.088 1.024 33.6 2.048 50.752 4.096 14.656 2.048 29.312 4.096 43.968 7.168 22.656 5.632 45.248 9.28 68.48 11.328 6.144 0 12.224 0 18.368-1.024a44.608 44.608 0 0 0 16.512-6.208 32.384 32.384 0 0 0 13.44-19.52c1.28-7.68 0.64-15.36-1.792-23.04a166.656 166.656 0 0 0-26.304-40.64c-3.712-5.12-7.36-10.752-11.008-15.936 15.872-14.848 29.952-31.36 41.6-48.256 7.296 0.512 14.08-0.512 20.736-2.048a88.32 88.32 0 0 0 44.032-27.776 55.872 55.872 0 0 0 7.36-12.8c6.72-9.28 11.584-19.52 14.08-30.336a101.376 101.376 0 0 0 0-52.416z" fill="#020204" p-id="14455"></path><path d="M422.72 349.952a29.696 29.696 0 0 0-6.72 11.776 46.528 46.528 0 0 0-1.856 12.864c0.64 8.704-0.64 17.472-2.432 25.664a82.56 82.56 0 0 1-15.872 24.192c-12.224 12.8-21.44 26.688-28.16 42.112a65.536 65.536 0 0 0-3.072 28.8c-12.16 15.36-23.232 31.808-31.744 48.768-13.44 25.664-22.656 52.864-26.304 81.152a181.76 181.76 0 0 0 17.088 101.184c11.648 23.104 29.376 43.648 51.392 60.16 11.584 8.128 23.808 15.36 37.312 20.992a199.68 199.68 0 0 0 151.04-1.024 284.608 284.608 0 0 0 64.128-42.624c12.288-9.216 23.296-19.52 32.448-30.848 15.872-23.04 25.088-48.768 26.88-75.52a211.52 211.52 0 0 0-17.088-136.576 150.848 150.848 0 0 0-32.448-39.04 189.056 189.056 0 0 0-20.736-58.56c-7.36-13.44-16.512-26.24-23.296-39.552-3.008-5.696-4.864-11.328-8.512-16.448a43.712 43.712 0 0 0-12.224-14.912 56.32 56.32 0 0 0-19.008-9.28 73.856 73.856 0 0 0-21.376-3.072c-14.72-0.512-29.312 1.024-44.032 0.512-11.584-0.512-23.232-2.048-34.816-1.536a47.744 47.744 0 0 0-17.152 3.072 28.8 28.8 0 0 0-13.44 7.68z m4.864-107.392a23.936 23.936 0 0 0-14.656 5.696 30.08 30.08 0 0 0-8.576 11.776 51.776 51.776 0 0 0-1.792 27.264c0 8.192 1.792 16.384 4.864 24.64 1.856 4.096 4.288 7.68 7.936 10.24a28.8 28.8 0 0 0 12.8 6.208 26.368 26.368 0 0 0 14.08-0.512 24.576 24.576 0 0 0 11.648-6.208 31.744 31.744 0 0 0 9.792-14.848 61.44 61.44 0 0 0-1.28-38.016 44.096 44.096 0 0 0-22.592-24.704c-3.648-0.512-7.936-1.536-12.16-1.536z m97.28 0a47.936 47.936 0 0 0-19.584 20.032 42.432 42.432 0 0 0 1.792 32.384 52.032 52.032 0 0 0 22.656 27.2c5.504 3.136 11.584 5.12 18.304 6.208a42.24 42.24 0 0 0 19.584-3.072 38.528 38.528 0 0 0 16.512-14.912 58.176 58.176 0 0 0 1.856-45.76 42.24 42.24 0 0 0-20.16-22.08 56.512 56.512 0 0 0-15.936-5.12 43.968 43.968 0 0 0-16.512 1.536c-3.072 1.024-6.08 2.56-8.576 3.584z" fill="#FFFFFF" p-id="14456"></path><path d="M544.384 264.704a20.608 20.608 0 0 0-9.152 2.56 24.192 24.192 0 0 0-12.224 21.12c0 4.032 0.64 8.128 1.856 11.776a22.464 22.464 0 0 0 7.936 9.728c3.648 2.56 8.512 4.096 13.44 4.608a27.072 27.072 0 0 0 14.08-3.584 32.064 32.064 0 0 0 7.936-7.168 29.184 29.184 0 0 0 3.648-9.28 23.808 23.808 0 0 0-3.072-16.96 26.688 26.688 0 0 0-15.232-11.264 14.592 14.592 0 0 0-9.216-1.536z" fill="#020204" p-id="14457"></path><path d="M427.584 242.56a23.936 23.936 0 0 0-14.656 5.696 30.08 30.08 0 0 0-8.576 11.776 51.776 51.776 0 0 0-1.792 27.264c0 8.192 1.792 16.448 4.864 24.64 1.856 4.096 4.288 7.68 7.936 10.24a28.8 28.8 0 0 0 12.8 6.208 26.368 26.368 0 0 0 14.08-0.512 24.576 24.576 0 0 0 11.648-6.144 31.744 31.744 0 0 0 9.792-14.912 61.44 61.44 0 0 0-1.28-38.016 44.096 44.096 0 0 0-22.592-24.64c-3.648-0.512-7.936-1.536-12.16-1.536z" fill="#FFFFFF" p-id="14458"></path><path d="M414.144 281.088a28.608 28.608 0 0 0 1.28 17.472 31.488 31.488 0 0 0 7.296 9.792 16.768 16.768 0 0 0 7.36 4.608c2.432 1.024 6.08 1.536 8.512 1.024a12.992 12.992 0 0 0 6.784-4.096 16.448 16.448 0 0 0 3.648-6.144 26.624 26.624 0 0 0-0.64-20.608 29.312 29.312 0 0 0-9.152-12.8 22.4 22.4 0 0 0-7.36-3.072 15.808 15.808 0 0 0-8.512 0.512 11.328 11.328 0 0 0-6.72 5.632c-0.64 2.048-1.92 5.12-2.496 7.68z" fill="#020204" p-id="14459"></path><path d="M401.28 353.024c0 0.512 0.64 1.536 1.28 2.048 0.64 1.024 1.792 2.048 3.648 3.072 1.28 1.024 2.432 1.536 4.288 2.112 7.296 4.096 13.44 9.216 18.304 14.848 6.144 8.256 14.08 15.424 22.656 21.568 6.72 3.648 14.72 6.208 22.592 6.72a104.384 104.384 0 0 0 51.968-11.328c12.864-8.704 26.88-16.448 41.6-23.104 3.648-1.024 6.72-2.048 10.432-3.072a12.8 12.8 0 0 0 7.936-6.208 20.608 20.608 0 0 0 1.792-8.704c0.64-3.072 1.92-6.144 2.496-9.216a16 16 0 0 0-0.64-9.28c-1.216-2.56-3.648-4.096-6.72-5.632a51.776 51.776 0 0 0-8.576-2.048c-6.08 0-12.16 0.512-18.304 1.536-8 0.512-16.512 0-24.512 0-10.368 0-20.16 2.048-30.528 2.56-11.648 0.512-23.232-1.024-34.88-1.536-4.864 0-10.368 0-15.296 0.512a34.496 34.496 0 0 0-14.08 4.608c-3.648 2.56-7.296 5.12-10.944 8.256a22.4 22.4 0 0 1-13.44 5.12h-3.712c-0.64 0-1.216 0.512-1.856 1.024-0.64 0.512-1.216 1.024-1.216 1.536-1.792 2.048-3.008 3.584-4.224 4.608z" fill="#D99A03" p-id="14460"></path><path d="M427.008 331.52a143.552 143.552 0 0 0-12.224 6.656 13.12 13.12 0 0 0-4.928 4.608 13.824 13.824 0 0 0-1.216 4.096v4.608c0 1.024-0.64 2.048-0.64 3.136v1.536c0 0.512 0.64 1.024 0.64 1.536 0.64 0.512 1.28 1.024 1.856 1.024 0.64 0 1.28 0.512 2.432 0.512 3.648 1.024 6.72 2.56 9.792 4.608 3.072 2.048 5.504 4.608 7.936 6.656a53.12 53.12 0 0 0 28.16 7.68c9.792 0 20.16-1.472 29.952-3.52 7.936-1.6 15.296-3.136 22.592-5.12 11.648-3.648 22.016-8.768 31.232-15.488 3.648-3.072 7.936-6.144 12.8-8.704 4.288-2.048 8.576-3.584 12.8-5.632 0.64 0 0.64-0.512 1.28-0.512s0.64-0.512 0.64-1.024v-2.048c0-0.512-0.64-1.024-0.64-1.536l-1.856-1.6a29.76 29.76 0 0 0-15.872-4.608c-6.144-0.512-11.648 0-17.152-1.024a176.704 176.704 0 0 1-15.872-3.584 189.888 189.888 0 0 0-16.512-3.584 128.512 128.512 0 0 0-39.744 1.024c-12.224 1.024-24.448 5.12-35.456 10.24z" fill="#604405" p-id="14461"></path><path d="M425.792 319.616c-6.144 3.648-11.008 7.68-15.936 12.352a29.44 29.44 0 0 0-6.08 8.768c-0.64 2.56-1.856 5.12-1.856 7.68 0 1.024-0.64 2.048-0.64 3.072v1.536c0 0.512 0.64 1.024 0.64 1.536 0.64 0.512 1.856 1.024 2.432 1.024a6.4 6.4 0 0 1 3.072 0.512 27.008 27.008 0 0 1 12.224 4.672c3.648 2.048 7.36 4.608 11.008 6.656 8.576 4.096 18.368 6.656 28.16 6.656 9.728 0 20.16-0.512 29.952-2.56 7.936-1.024 15.296-3.072 22.592-5.632a169.6 169.6 0 0 0 44.032-24.128c1.28-1.024 2.432-2.112 4.288-3.136a13.888 13.888 0 0 1 4.864-2.56 24 24 0 0 1 8.576 0 24.576 24.576 0 0 0 6.144 0.512c1.216 0 1.792 0 3.008-0.512 1.28-0.512 1.92-1.024 2.496-1.536 0.64-1.024 1.216-2.048 1.216-3.072s-0.64-2.56-1.28-3.584a14.72 14.72 0 0 0-6.656-4.608c-3.712-1.024-7.36-2.048-11.008-2.56a192.64 192.64 0 0 1-33.664-10.304c-5.504-2.048-10.368-4.608-15.872-7.168a107.776 107.776 0 0 0-16.512-6.208c-13.44-3.072-26.88-2.56-39.744 1.536a96 96 0 0 0-35.456 21.12z" fill="#F5BD0C" p-id="14462"></path><path d="M492.416 306.304c0.64 2.048 4.288 1.536 6.72 2.56 1.856 1.024 3.712 2.56 5.504 2.56 1.856 0 4.928-0.512 5.504-2.048 0.64-2.048-3.648-3.584-6.08-4.608a14.464 14.464 0 0 0-10.432 0c-0.64 0-1.216 1.024-1.216 1.536zM456.96 305.28c-2.432-0.512-7.36 3.072-6.08 5.12 0.64 0.512 1.792 1.536 2.432 1.024 0.64-0.512 2.432-2.56 3.648-3.584 1.856-0.512 1.28-2.56 0-2.56z" fill="#CD8907" p-id="14463"></path><path d="M895.36 785.024a36.224 36.224 0 0 1-8.576 12.352c-8.512 7.68-18.944 13.824-30.528 17.92-19.584 7.744-38.528 16-56.896 25.216a238.72 238.72 0 0 0-33.6 22.592 254.208 254.208 0 0 1-27.52 20.544c-9.792 6.144-21.44 10.24-33.664 11.84a97.152 97.152 0 0 1-44.032-5.696 53.184 53.184 0 0 1-24.448-15.872 43.136 43.136 0 0 1-6.72-25.728c0.64-15.872 3.072-31.36 6.72-46.72 2.432-12.8 5.504-25.664 6.72-38.528 3.072-23.68 3.072-47.744 1.28-71.424a38.08 38.08 0 0 1 0-11.776c0.576-8.256 8.512-14.4 18.304-14.4a54.4 54.4 0 0 1 12.8 1.024c10.432 1.024 20.224 2.56 30.592 4.608 6.144 1.536 12.224 3.072 18.944 4.608 10.432 2.56 21.44 3.648 32.448 2.56 11.584-1.984 23.232-3.584 34.816-4.608 4.928 0 9.792 1.088 14.08 2.112a28.928 28.928 0 0 1 12.8 6.144c2.496 2.048 4.928 5.12 6.144 7.68a48.64 48.64 0 0 1 3.712 13.376c0 4.096 0.64 8.192 1.216 12.352a38.4 38.4 0 0 0 11.008 17.92c5.504 5.12 11.008 9.792 17.728 13.888 6.08 4.096 12.16 8.768 18.944 12.352 3.072 1.536 6.144 3.584 9.152 5.632a22.4 22.4 0 0 1 7.36 7.232 18.816 18.816 0 0 1 1.216 12.8z" fill="#F5BD0C" p-id="14464"></path><path d="M895.36 785.088a36.288 36.288 0 0 1-8.576 12.288c-8.512 7.68-18.944 13.888-30.528 17.984-19.584 7.68-38.528 15.936-56.896 25.152a237.888 237.888 0 0 0-33.6 22.656 254.208 254.208 0 0 1-27.52 20.48c-9.792 6.208-21.44 10.304-33.664 11.84a97.152 97.152 0 0 1-44.032-5.632 53.12 53.12 0 0 1-24.448-15.936 43.136 43.136 0 0 1-6.72-25.664c0.64-15.936 3.072-31.36 6.72-46.72 2.432-12.864 5.504-25.728 6.72-38.528a348.16 348.16 0 0 0 1.28-71.424 38.08 38.08 0 0 1 0-11.84c0.576-8.192 8.512-14.4 18.304-14.4 4.288 0 8.576 0 12.8 1.088 10.432 1.024 20.224 2.56 30.592 4.608 6.144 1.536 12.224 3.072 18.944 4.608 10.432 2.56 21.44 3.584 32.448 2.56 11.584-2.048 23.232-3.584 34.816-4.608 4.928 0 9.792 1.024 14.08 2.048a28.928 28.928 0 0 1 12.8 6.144 25.6 25.6 0 0 1 6.144 7.68 48.704 48.704 0 0 1 3.712 13.44c0 4.096 0.64 8.192 1.216 12.288a38.4 38.4 0 0 0 11.008 17.984c5.504 5.12 11.008 9.728 17.728 13.888 6.08 4.096 12.16 8.704 18.944 12.288 3.072 1.536 6.144 3.584 9.152 5.696a22.464 22.464 0 0 1 7.36 7.168 18.752 18.752 0 0 1 1.216 12.8zM253.376 653.568a32.896 32.896 0 0 1 15.872-1.024c5.504 1.024 10.368 2.56 14.72 5.12 8.512 5.632 15.872 12.352 21.376 19.52 14.656 16.448 28.16 33.92 40.96 51.392 10.368 14.336 19.52 29.248 31.168 42.624 7.936 8.704 16.512 16.96 23.872 25.664 7.936 8.768 14.08 18.56 17.728 28.8a50.944 50.944 0 0 1-4.928 41.088 63.36 63.36 0 0 1-23.808 21.568c-10.432 5.12-22.016 7.68-34.24 7.168a191.168 191.168 0 0 1-53.824-14.4c-35.456-11.776-74.624-15.872-111.296-25.152a812.032 812.032 0 0 0-33.6-8.704 117.76 117.76 0 0 1-14.72-4.096 22.4 22.4 0 0 1-11.584-8.256 20.224 20.224 0 0 1-3.072-9.728c0-3.648 1.28-6.72 2.432-9.792 3.072-6.144 7.36-12.352 10.432-18.496 4.288-10.24 6.08-21.568 4.864-32.896-0.64-11.264-3.072-22.08-3.648-33.344a40.768 40.768 0 0 1 0.64-14.912c1.792-9.728 10.368-17.472 22.592-19.008 5.504-1.024 11.008-1.024 16.512-1.024h16.512a41.792 41.792 0 0 0 15.872-3.584 28.416 28.416 0 0 0 11.008-8.768c3.072-3.584 5.504-7.168 7.936-11.264a56.832 56.832 0 0 1 8.576-10.816 24.96 24.96 0 0 1 11.648-7.68z" fill="#F5BD0C" p-id="14465"></path><path d="M253.376 653.568a32.896 32.896 0 0 1 15.872-1.024c5.504 1.024 10.368 2.56 14.72 5.12 8.512 5.632 15.872 12.352 21.376 19.52 14.656 16.448 28.16 33.92 40.96 51.392 10.368 14.336 19.52 29.248 31.168 42.624 7.936 8.704 16.512 16.96 23.872 25.664 7.936 8.768 14.08 18.56 17.728 28.8a50.944 50.944 0 0 1-4.928 41.088 63.36 63.36 0 0 1-23.808 21.568c-10.432 5.12-22.016 7.68-34.24 7.168a191.168 191.168 0 0 1-53.824-14.4c-35.456-11.776-74.624-15.872-111.296-25.152a812.032 812.032 0 0 0-33.6-8.704 117.76 117.76 0 0 1-14.72-4.096 22.4 22.4 0 0 1-11.584-8.256 20.224 20.224 0 0 1-3.072-9.728c0-3.648 1.28-6.72 2.432-9.792 3.072-6.144 7.36-12.352 10.432-18.496 4.288-10.24 6.08-21.568 4.864-32.896-0.64-11.264-3.072-22.08-3.648-33.344a40.768 40.768 0 0 1 0.64-14.912c1.792-9.728 10.368-17.472 22.592-19.008 5.504-1.024 11.008-1.024 16.512-1.024h16.512a41.792 41.792 0 0 0 15.872-3.584 28.416 28.416 0 0 0 11.008-8.768c3.072-3.584 5.504-7.168 7.936-11.264a56.832 56.832 0 0 1 8.576-10.816 24.96 24.96 0 0 1 11.648-7.68z" fill="#F5BD0C" p-id="14466"></path><path d="M260.672 660.736a32.704 32.704 0 0 1 14.08-1.088c4.864 1.088 9.152 2.56 12.8 5.12 7.36 5.184 13.44 11.84 17.728 19.072 12.288 16.448 24.512 33.344 35.52 50.816 7.936 13.376 17.088 25.728 27.52 38.016 6.72 7.68 14.656 14.912 21.952 23.104 7.36 7.68 12.864 16.448 16.512 25.728a41.984 41.984 0 0 1-4.864 36.992 53.12 53.12 0 0 1-22.016 19.52 70.016 70.016 0 0 1-31.168 6.656 204.48 204.48 0 0 1-49.536-12.8c-31.168-9.28-64.832-10.88-96.64-17.984-11.584-2.56-22.592-6.208-34.24-8.768-4.864-1.024-10.368-2.048-15.232-3.584a27.008 27.008 0 0 1-12.288-8.256c-1.792-3.072-3.008-6.144-2.432-9.216 0-3.072 1.28-6.656 2.432-9.792 3.072-6.144 7.36-11.776 9.792-17.92a60.288 60.288 0 0 0 4.288-29.312c-0.64-9.728-3.072-19.52-3.648-29.76-0.64-4.672 0-8.768 0.64-13.44a25.088 25.088 0 0 1 7.296-11.776 38.784 38.784 0 0 1 15.296-6.144c5.504-0.512 11.584-0.512 17.088 0 5.504 0.512 11.648 1.024 17.152 0.512a37.12 37.12 0 0 0 16.512-4.096 26.24 26.24 0 0 0 9.792-9.792c2.432-4.096 4.288-7.68 6.08-11.776a78.72 78.72 0 0 1 6.72-11.84 44.992 44.992 0 0 1 12.864-8.192z" fill="#F5BD0C" p-id="14467"></path></svg>