<?xml version="1.0" standalone="no"?><!DOCTYPE svg PUBLIC "-//W3C//DTD SVG 1.1//EN" "http://www.w3.org/Graphics/SVG/1.1/DTD/svg11.dtd"><svg class="icon" width="200px" height="200.00px" viewBox="0 0 1024 1024" version="1.1" xmlns="http://www.w3.org/2000/svg"><path d="M0 0h1024v1024H0z" fill="#FFFFFF" /><path d="M797.44 337.536l-14.016-31.104c45.184 27.712 87.168 49.152 118.4 49.152s58.24-25.024 58.24-25.024c-27.776-100.736-27.648-93.696-197.696-128.448v28.032c-7.04-10.432-86.528-34.624-190.592-38.144h-24.128C398.4 192 203.52 313.536 203.52 448.768c0 72.96 59.52 128.448 132.48 128.448 55.488 0 97.28-41.152 97.28-86.4 0-41.6-28.224-90.24-87.296-90.24-14.016 0-62.208 9.536-62.208 58.176 0 34.752 27.328 52.16 48.192 52.16 31.232 0 35.008-13.056 35.008-20.096 0-10.368-6.656-14.528-17.024-18.048-7.04 0-14.592 4.032-18.112 4.032-3.456 0-14.016-4.16-14.016-18.048 0-13.952 14.848-20.032 32.128-20.032 27.776 0 44.16 27.264 44.16 48.128 0 10.368-3.136 48.128-55.232 48.128-38.08 0-83.2-27.2-83.2-79.36s45.632-83.2 87.296-83.2c111.104 0 128.384 111.36 128.384 111.36l48.192 24.064a216.128 216.128 0 0 1-3.008-31.168c0-45.12 20.48-63.168 62.208-63.168 62.464 0 87.04 52.928 111.36 77.248l62.144 27.072s-31.04-41.152-31.04-79.232c0-45.184 41.728-25.088 97.28-25.088 59.072 0 138.432-13.056 138.432-58.24-10.368 0-31.424 20.096-66.176 20.096-24.32-6.592-86.4-37.824-93.312-37.824z m86.4-93.44a45.952 45.952 0 0 1 45.12 45.184 45.184 45.184 0 0 1-90.24 0 43.648 43.648 0 0 1 45.056-45.056v-0.064z" fill="#7DBA44" /><path d="M883.712 328.512a31.104 31.104 0 1 0 0-62.208 31.104 31.104 0 0 0 0 62.144z m6.976-49.024c6.848 0 14.016 4.096 14.016 11.008-3.52 6.848-7.168 10.048-14.016 10.048s-14.016-3.2-14.016-10.112c0-3.584 7.168-11.072 14.08-11.072l-0.064 0.128z" fill="#7DBA44" /><path d="M175.36 655.616h-49.024c-10.368 0-14.016-4.16-14.016-11.072v-9.984c0-7.04 7.68-14.016 18.112-14.016h83.072v-27.2c0-10.368-7.104-18.048-14.016-18.048H116.16A53.696 53.696 0 0 0 64 627.584v14.016c0 27.712 20.48 45.12 48.128 45.12h52.16c7.04 0 14.08 3.648 14.08 14.016v14.016c0 7.04-7.168 13.056-14.08 13.056H67.2v25.024c0 10.432 7.552 17.152 17.92 17.152h86.4a53.696 53.696 0 0 0 52.096-52.224v-20.992c0-27.776-16.896-41.152-48.192-41.152z m398.336 0h-52.224c-10.368 0-14.016-4.16-14.016-11.072v-9.984c0-7.04 6.656-14.016 17.024-14.016H611.84v-27.2a17.536 17.536 0 0 0-17.088-18.048H517.44a53.632 53.632 0 0 0-52.16 52.16v14.016c0 27.712 21.44 45.12 49.152 45.12h52.288c6.912 0 13.056 3.648 13.056 14.08v13.952a13.44 13.44 0 0 1-13.056 13.056H465.28v25.024c0 10.432 7.68 17.088 18.112 17.088H569.6a53.632 53.632 0 0 0 52.16-52.16v-20.992c0-27.648-16.96-41.024-48.128-41.024z m207.68-76.288h-69.248a53.632 53.632 0 0 0-52.224 52.16v86.272c0 27.712 24.448 52.16 52.224 52.16h73.216c10.432 0 17.088-6.656 17.088-17.024v-25.152h-83.264c-10.432 0-14.016-6.08-14.016-12.992v-25.088h100.352c14.08 0 28.032-10.176 28.032-24.064v-34.112a53.76 53.76 0 0 0-52.16-52.16z m3.968 72.32h-83.2c3.52 0 3.008-20.032 3.008-20.032a15.36 15.36 0 0 1 13.952-14.08h52.16a15.36 15.36 0 0 1 14.016 14.08l0.064 20.032z m-377.216-27.2H398.08v3.136c-10.432 0-17.024 6.656-17.024 17.088v70.208c0 10.368-7.68 17.088-18.048 17.088h-45.12c-10.432 0-17.088-6.72-17.088-17.088v-70.4c0-10.368-10.688-17.024-20.992-17.024h-7.04c-10.432 0-17.088 6.656-17.088 17.088v73.216c0 34.752 21.056 52.16 59.264 52.16h6.976c17.28 0 31.232-7.168 45.12-14.016 7.04-3.456 10.56-7.04 14.08-7.04a13.44 13.44 0 0 1 6.016 4.096l11.008 13.952h14.08c10.304 0 16.96-11.008 16.96-17.984v-107.328c0-10.496-10.624-17.152-21.056-17.152z" fill="#040000" /></svg>