<?xml version="1.0" standalone="no"?><!DOCTYPE svg PUBLIC "-//W3C//DTD SVG 1.1//EN" "http://www.w3.org/Graphics/SVG/1.1/DTD/svg11.dtd"><svg class="icon" width="200px" height="200.00px" viewBox="0 0 1024 1024" version="1.1" xmlns="http://www.w3.org/2000/svg"><path d="M0 0h1024v1024H0z" fill="#FFFFFF" /><path d="M210.432 429.696c45.44 0 82.432 35.968 82.432 80.128S255.872 590.08 210.432 590.08C164.992 589.888 128 553.92 128 509.696c0-44.032 37.056-80 82.432-80z m367.04-237.44c20.352 0 40.256 1.92 59.52 5.44a91.392 91.392 0 0 0-0.576 10.368c0 61.504 51.584 111.744 114.816 111.744 24.96 0 47.872-7.68 66.752-20.928a305.472 305.472 0 0 1 77.76 178.88l-130.048 3.84c-10.88-91.52-91.2-163.072-188.224-163.072a191.36 191.36 0 0 0-76.992 16L435.456 224.896a322.816 322.816 0 0 1 142.016-32.64z" fill="#FB9200" /><path d="M755.648 735.68c45.44 0 82.304 35.968 82.304 80.128S800.96 896 755.648 896c-45.44 0-82.432-36.032-82.432-80.192 0.128-44.16 37.12-80.128 82.432-80.128z m-360.32 22.016a313.92 313.92 0 0 1-120.32-155.52c30.272-20.224 50.24-54.08 50.24-92.416 0-39.808-21.632-74.88-54.016-94.72a312.64 312.64 0 0 1 120.96-164.992L460.8 357.824a182.464 182.464 0 0 0-72.768 145.088c0 58.24 28.032 110.4 71.616 144.128L395.328 757.76z" fill="#FAC400" /><path d="M896 524.8a305.408 305.408 0 0 1-87.232 192A117.056 117.056 0 0 0 755.84 704c-60.416 0-110.08 45.696-114.56 103.232a324.928 324.928 0 0 1-203.328-25.024l64.768-109.952c22.976 9.728 48.256 14.976 74.816 14.976 97.408 0 178.176-72.192 188.352-164.352l130.176 1.92zM751.232 128c45.44 0 82.432 35.968 82.432 80.192 0 44.16-36.992 80.128-82.432 80.128-45.44 0-82.432-35.968-82.432-80.128 0.128-44.16 37.12-80.192 82.432-80.192z" fill="#E9000C" /></svg>