<svg width="16" height="16" viewBox="0 0 16 16" xmlns="http://www.w3.org/2000/svg">
<path d="M3.65213 6.31377C3.74278 5.95901 3.86937 5.61519 4.03347 5.28699C4.55702 4.23051 5.42439 3.35064 6.5512 2.82709L5.89012 1.41272C3.8303 2.36918 2.43468 4.25708 2.03772 6.38879L1 6.43724L3.02231 9.59573L4.74768 6.2622L3.65213 6.31377ZM9.57841 12.3557C9.22521 12.4526 8.86576 12.5151 8.50005 12.5401C7.32324 12.6151 6.12767 12.3041 5.1087 11.5899L4.21475 12.8683C6.07297 14.1733 8.40628 14.4374 10.4505 13.7154L11.0115 14.5906L12.7338 11.2586L8.98609 11.4305L9.57841 12.3557ZM12.5884 2.76614L13.0651 1.8425L9.31742 2.01441L11.3413 5.1729L11.8461 4.19769C12.1055 4.454 12.3415 4.73687 12.5447 5.04006C13.1979 6.02309 13.5277 7.21397 13.4167 8.45174L14.9733 8.5877C15.1734 6.32784 14.2357 4.17581 12.5884 2.76614Z"/>
</svg>
