<svg width="18" height="18" viewBox="0 0 18 18" xmlns="http://www.w3.org/2000/svg">
<path d="M9.00019 3.05025C12.2586 3.05026 14.9101 5.70781 14.9101 8.99853H15.9916C15.9916 5.11609 12.8615 1.96875 9.00019 1.96875C6.4843 1.96875 4.27879 3.30493 3.04729 5.31002L3.04729 2.97284H1.96875V6.46756C1.96875 6.77822 2.22059 7.03006 2.53125 7.03006L6.00386 7.03006V5.94561L3.92676 5.94561C4.9602 4.20987 6.84779 3.05025 9.00019 3.05025Z" />
<path d="M2.00873 8.99847H3.09024C3.09023 12.2892 5.74178 14.9468 9.00019 14.9468C11.1526 14.9468 13.0402 13.7872 14.0736 12.0515H11.9962V10.967H15.4688C15.7794 10.967 16.0313 11.2188 16.0313 11.5295V15.0242H14.9527V12.6876C13.7212 14.6924 11.5158 16.0283 9.00019 16.0283C5.13891 16.0283 2.00873 12.8809 2.00873 8.99847Z" />
</svg>
