<svg width="16" height="16" viewBox="0 0 16 16" xmlns="http://www.w3.org/2000/svg">
<path d="M8.0002 1.23051C11.7075 1.23051 14.7244 4.25421 14.7244 7.99831H15.9549C15.9549 3.58097 12.3935 0 8.0002 0C5.13768 0 2.62831 1.52027 1.22714 3.80162L1.22714 1.14242H0V5.25864C0 5.53478 0.223858 5.75864 0.5 5.75864L4.59105 5.75864V4.52477L2.22778 4.52477C3.4036 2.54989 5.55126 1.23051 8.0002 1.23051Z" />
<path d="M0.0454889 7.99825H1.276C1.276 11.7424 4.29286 14.7661 8.0002 14.7661C10.4491 14.7661 12.5968 13.4467 13.7726 11.4719H11.4089V10.238H15.5C15.7761 10.238 16 10.4618 16 10.738V14.8542H14.7729V12.1957C13.3716 14.4766 10.8624 15.9966 8.0002 15.9966C3.60693 15.9966 0.0454865 12.4156 0.0454889 7.99825Z" />
</svg>
