<svg width="30" height="31" viewBox="0 0 30 31" xmlns="http://www.w3.org/2000/svg">
<path d="M24.9785 7.59863C24.501 7.5752 24.0235 7.56348 23.5459 7.52539C22.8545 7.46973 22.1748 7.34082 21.501 7.17969C20.2002 6.86914 18.9815 6.3418 17.7949 5.73242C16.8897 5.26953 16.0108 4.75684 15.208 4.12402C15.1699 4.09473 15.1377 4.0625 15.0996 4.0332H15.0762C14.625 4.40234 14.1445 4.7334 13.6406 5.02637C12.5889 5.65918 11.4844 6.20117 10.3418 6.65234C9.50392 6.97754 8.63674 7.19434 7.7549 7.36133C6.83498 7.53418 5.90627 7.5957 4.97463 7.61035C4.93947 7.61035 4.90139 7.61621 4.86623 7.61914C4.86037 7.61914 4.85158 7.625 4.834 7.63672V7.75977C4.83693 11.1406 4.83693 14.5186 4.834 17.8994C4.83107 19.1445 5.17092 20.3018 5.71584 21.4062C6.38381 22.7686 7.29787 23.9492 8.36721 25.0156C9.48928 26.1377 10.7403 27.0928 12.1553 27.8164C12.8789 28.1855 13.6289 28.4785 14.4346 28.6104C14.584 28.6338 14.7334 28.6514 14.8828 28.6719H15.293C15.4863 28.6426 15.6768 28.6221 15.8701 28.5869C16.4795 28.4785 17.0625 28.2734 17.6221 28.0098C19.5352 27.1133 21.1406 25.8184 22.5352 24.2393C23.3613 23.3076 24.0586 22.2881 24.5801 21.1514C24.9434 20.3574 25.2041 19.5313 25.2979 18.6611C25.3242 18.4063 25.3389 18.1484 25.336 17.8906V7.61621L24.9785 7.59863ZM15.8584 15.708L16.3301 20.7178H13.8516L14.3233 15.708C13.6348 15.4092 13.1514 14.7236 13.1514 13.9268C13.1514 12.8545 14.0215 11.9873 15.0908 11.9873C16.1602 11.9873 17.0303 12.8574 17.0303 13.9268C17.0303 14.7236 16.5469 15.4092 15.8584 15.708Z"/>
</svg>
