<svg width="24" height="24" viewBox="0 0 24 24" xmlns="http://www.w3.org/2000/svg">
<path opacity="0.4" d="M21 5C16 4 14.2221 3.111 12.0181 2C9.77807 3.111 8 4 3 5C3 6.137 3 9.70192 3 10.8889C3 17.5559 8.667 20.889 12 22C15.333 20.889 21 17.5559 21 10.8889C21 9.66392 21 6.194 21 5Z" />
<path d="M14.9883 11.25H12.7383V9C12.7383 8.586 12.4023 8.25 11.9883 8.25C11.5743 8.25 11.2383 8.586 11.2383 9V11.25H8.98828C8.57428 11.25 8.23828 11.586 8.23828 12C8.23828 12.414 8.57428 12.75 8.98828 12.75H11.2383V15C11.2383 15.414 11.5743 15.75 11.9883 15.75C12.4023 15.75 12.7383 15.414 12.7383 15V12.75H14.9883C15.4023 12.75 15.7383 12.414 15.7383 12C15.7383 11.586 15.4023 11.25 14.9883 11.25Z" />
</svg>
