<svg width="18" height="18" viewBox="0 0 18 18" xmlns="http://www.w3.org/2000/svg">
<path d="M7.87498 5.90626H4.49997V4.78125H7.87498V5.90626Z" />
<path d="M1.68774 2.81265C1.68766 2.50193 1.93952 2.25 2.25025 2.25H15.7503C16.0609 2.25 16.3127 2.50175 16.3128 2.81235L16.3138 7.87488C16.3139 8.1856 16.0621 8.43753 15.7513 8.43753H2.25131C1.94071 8.43753 1.6889 8.18578 1.68881 7.87518L1.68774 2.81265ZM2.81366 7.31253H15.1887L15.1879 3.375H2.8129L2.81366 7.31253Z" />
<path d="M4.5001 13.2188H7.8751V12.0938H4.5001V13.2188Z" />
<path d="M1.68896 10.125C1.68896 9.81437 1.94081 9.56253 2.25147 9.56253H15.7515C16.0622 9.56253 16.314 9.81437 16.314 10.125V15.1875C16.314 15.4982 16.0622 15.75 15.7515 15.75H2.25147C1.94081 15.75 1.68896 15.4982 1.68896 15.1875V10.125ZM2.81397 14.625H15.189V10.6875H2.81397V14.625Z" />
</svg>
