<svg width="24" height="24" viewBox="0 0 24 24" xmlns="http://www.w3.org/2000/svg">
<path opacity="0.4" fill-rule="evenodd" clip-rule="evenodd" d="M6 18H18C20 18 21 16.923 21 14.769V7.22998C21 5.07598 20 3.99902 18 3.99902H6C4 3.99902 3 5.07598 3 7.22998V14.769C3 16.923 4 18 6 18Z" fill="#25314C"/>
<path d="M8 15.75C7.586 15.75 7.25 15.414 7.25 15V10C7.25 9.586 7.586 9.25 8 9.25C8.414 9.25 8.75 9.586 8.75 10V15C8.75 15.414 8.414 15.75 8 15.75ZM12.75 15V7C12.75 6.586 12.414 6.25 12 6.25C11.586 6.25 11.25 6.586 11.25 7V15C11.25 15.414 11.586 15.75 12 15.75C12.414 15.75 12.75 15.414 12.75 15ZM16.75 15V12C16.75 11.586 16.414 11.25 16 11.25C15.586 11.25 15.25 11.586 15.25 12V15C15.25 15.414 15.586 15.75 16 15.75C16.414 15.75 16.75 15.414 16.75 15Z" fill="#25314C"/>
<path d="M17 21.75H7C6.586 21.75 6.25 21.414 6.25 21C6.25 20.586 6.586 20.25 7 20.25H17C17.414 20.25 17.75 20.586 17.75 21C17.75 21.414 17.414 21.75 17 21.75Z" fill="#25314C"/>
</svg>
