<svg width="25" height="24" viewBox="0 0 25 24" xmlns="http://www.w3.org/2000/svg">
<path opacity="0.4" d="M21.3301 11.4651C20.1571 17.5151 12.4991 21.0001 12.4991 21.0001C12.4991 21.0001 4.84207 17.5151 3.66807 11.4651C2.94807 7.75314 4.52112 4.01906 8.52012 4.00006C11.4991 3.98606 12.4991 6.98809 12.4991 6.98809C12.4991 6.98809 13.4992 3.98506 16.4772 4.00006C20.4862 4.02006 22.0501 7.75414 21.3301 11.4651Z" />
<path d="M8.66727 13.3665C8.61757 13.181 8.63836 12.9767 8.74256 12.7976C8.94974 12.4387 9.40859 12.3158 9.76744 12.523C11.4551 13.4974 13.521 13.4645 15.159 12.4376C15.51 12.2173 15.9724 12.3242 16.1925 12.6742C16.4142 13.034 16.3054 13.4897 15.9551 13.7088C13.8454 15.0309 11.1871 15.0744 9.01689 13.8214C8.83711 13.7184 8.71722 13.5529 8.66727 13.3665Z" />
</svg>
