<svg width="14" height="14" viewBox="0 0 14 14" xmlns="http://www.w3.org/2000/svg">
<path d="M10.0002 7C10.0002 8.65685 8.65702 10 7.00017 10C5.34331 10 4.00017 8.65685 4.00017 7C4.00017 5.34315 5.34331 4 7.00017 4C8.65702 4 10.0002 5.34315 10.0002 7ZM9.00017 7C9.00017 5.89543 8.10474 5 7.00017 5C5.8956 5 5.00017 5.89543 5.00017 7C5.00017 8.10457 5.8956 9 7.00017 9C8.10474 9 9.00017 8.10457 9.00017 7Z" />
<path d="M7.00017 0.25L13.0623 3.625V10.375L7.00017 13.75L0.937988 10.375V3.625L7.00017 0.25ZM1.93799 4.2128V9.7872L7.00017 12.6055L12.0623 9.7872V4.2128L7.00017 1.39453L1.93799 4.2128Z" />
</svg>
