<svg width="24" height="24" viewBox="0 0 24 24" xmlns="http://www.w3.org/2000/svg">
<path d="M12 18.75H10C7.932 18.75 6.25 17.068 6.25 15C6.25 12.932 7.932 11.25 10 11.25H14C15.241 11.25 16.25 10.241 16.25 9C16.25 7.759 15.241 6.75 14 6.75H12C11.586 6.75 11.25 6.414 11.25 6C11.25 5.586 11.586 5.25 12 5.25H14C16.068 5.25 17.75 6.932 17.75 9C17.75 11.068 16.068 12.75 14 12.75H10C8.759 12.75 7.75 13.759 7.75 15C7.75 16.241 8.759 17.25 10 17.25H12C12.414 17.25 12.75 17.586 12.75 18C12.75 18.414 12.414 18.75 12 18.75Z"/>
<path opacity="0.4" d="M6 2.5C4.07 2.5 2.5 4.07 2.5 6C2.5 8.037 4.32002 9.23891 5.52502 10.0349L5.72302 10.166C5.80702 10.222 5.904 10.25 6 10.25C6.096 10.25 6.19298 10.222 6.27698 10.166L6.47498 10.0349C7.67998 9.23891 9.5 8.037 9.5 6C9.5 4.07 7.93 2.5 6 2.5Z" />
<path d="M6.02063 7C5.46863 7 5.01562 6.552 5.01562 6C5.01562 5.448 5.45762 5 6.01062 5H6.02063C6.57263 5 7.02063 5.448 7.02063 6C7.02063 6.552 6.57263 7 6.02063 7Z"/>
<path opacity="0.4" d="M18 13.75C16.07 13.75 14.5 15.32 14.5 17.25C14.5 19.287 16.32 20.4889 17.525 21.2849L17.723 21.416C17.807 21.472 17.904 21.5 18 21.5C18.096 21.5 18.193 21.472 18.277 21.416L18.475 21.2849C19.68 20.4889 21.5 19.287 21.5 17.25C21.5 15.32 19.93 13.75 18 13.75Z" />
<path d="M18.0206 18.25C17.4686 18.25 17.0156 17.802 17.0156 17.25C17.0156 16.698 17.4576 16.25 18.0106 16.25H18.0206C18.5726 16.25 19.0206 16.698 19.0206 17.25C19.0206 17.802 18.5726 18.25 18.0206 18.25Z" />
</svg>
