<svg width="14" height="14" viewBox="0 0 14 14" xmlns="http://www.w3.org/2000/svg">
<path d="M7 0.933313C10.3451 0.933313 13.0667 3.65488 13.0667 6.9999C13.0667 10.3449 10.3451 13.0665 7 13.0665C3.65494 13.0665 0.933326 10.3449 0.933326 6.99989C0.933326 3.65486 3.65494 0.933313 7 0.933313ZM7 0C3.13414 0 0 3.13315 0 6.99989C0 10.8666 3.13414 13.9998 7 13.9998C10.8668 13.9998 14 10.8666 14 6.9999C14 3.13316 10.8668 0 7 0Z"/>
<path d="M10.0488 6.5379L6.31552 3.81541C6.16992 3.71086 5.98885 3.7062 5.84139 3.80142C5.69299 3.89753 5.60059 4.08046 5.60059 4.2774V9.72145C5.60059 9.91932 5.69299 10.1013 5.84139 10.1974C5.9114 10.2432 5.98979 10.2665 6.06725 10.2665C6.15311 10.2665 6.23899 10.2394 6.31459 10.1834L10.0479 7.46093C10.1842 7.36201 10.2672 7.18747 10.2672 6.99987C10.2672 6.81227 10.1842 6.63776 10.0488 6.5379Z"/>
</svg>
