<svg width="16" height="16" viewBox="0 0 16 16" xmlns="http://www.w3.org/2000/svg">
<path d="M3.06591 13.0408C1.74313 11.7181 1 9.92404 1 8.05339C1 6.18274 1.74313 4.3887 3.06591 3.06594C3.19894 2.93745 3.37712 2.86636 3.56206 2.86797C3.74701 2.86957 3.92392 2.94375 4.0547 3.07453C4.18548 3.2053 4.25966 3.38221 4.26127 3.56715C4.26288 3.75209 4.19178 3.93026 4.06329 4.06329C3.27355 4.85221 2.73555 5.85763 2.51736 6.95236C2.29916 8.0471 2.41058 9.18195 2.83751 10.2134C3.26444 11.2448 3.9877 12.1264 4.9158 12.7466C5.84389 13.3669 6.93511 13.698 8.05141 13.698C9.16772 13.698 10.2589 13.3669 11.187 12.7466C12.1151 12.1264 12.8384 11.2448 13.2653 10.2134C13.6923 9.18195 13.8037 8.0471 13.5855 6.95236C13.3673 5.85763 12.8293 4.85221 12.0395 4.06329C11.911 3.93026 11.84 3.75209 11.8416 3.56715C11.8432 3.38221 11.9173 3.2053 12.0481 3.07453C12.1789 2.94375 12.3558 2.86957 12.5408 2.86797C12.7257 2.86636 12.9039 2.93745 13.0369 3.06594C14.3141 4.39743 15.0187 6.1763 14.9996 8.02116C14.9806 9.86601 14.2394 11.63 12.9351 12.9348C11.6308 14.2397 9.86704 14.9816 8.02213 15.0014C6.17722 15.0212 4.39799 14.3174 3.06591 13.0408ZM8.05353 1C8.2406 1 8.42002 1.07431 8.5523 1.20659C8.68458 1.33887 8.75889 1.51827 8.75889 1.70534V8.05339C8.75889 8.24045 8.68458 8.41986 8.5523 8.55214C8.42002 8.68441 8.2406 8.75873 8.05353 8.75873C7.86646 8.75873 7.68705 8.68441 7.55476 8.55214C7.42248 8.41986 7.34817 8.24045 7.34817 8.05339V1.70534C7.34817 1.51827 7.42248 1.33887 7.55476 1.20659C7.68705 1.07431 7.86646 1 8.05353 1Z" />
</svg>
