<svg width="14" height="14" viewBox="0 0 14 14" xmlns="http://www.w3.org/2000/svg">
<g clip-path="url(#clip0_111_93397)">
<path fill-rule="evenodd" clip-rule="evenodd" d="M7.00035 13.2709C6.48702 13.2709 5.97952 13.1601 5.57702 12.9384L2.46203 11.2059C1.61619 10.7392 0.957031 9.61341 0.957031 8.64508V5.34924C0.957031 4.3809 1.61619 3.26093 2.46203 2.78843L5.57702 1.06175C6.37619 0.618415 7.62452 0.618415 8.42369 1.06175L11.5387 2.79423C12.3845 3.2609 13.0437 4.38674 13.0437 5.35508V8.65091C13.0437 9.61925 12.3845 10.7392 11.5387 11.2117L8.42369 12.9384C8.02119 13.1601 7.51369 13.2709 7.00035 13.2709ZM7.00035 1.60424C6.63285 1.60424 6.27119 1.68008 6.00285 1.82591L5.11196 2.32141L9.94239 5.11075L11.6939 4.09734C11.5246 3.86917 11.3232 3.67673 11.1129 3.5584L7.99785 1.82591C7.72952 1.68008 7.36785 1.60424 7.00035 1.60424ZM9.4799 6.39512V7.72341C9.4799 7.96258 9.67824 8.16091 9.9174 8.16091C10.1566 8.16091 10.3549 7.96264 10.3549 7.73514V5.88827L12.0928 4.88157C12.1416 5.04409 12.1687 5.20501 12.1687 5.35508V8.65091C12.1687 9.29842 11.6729 10.1326 11.1129 10.4476L7.99785 12.1801C7.8397 12.2687 7.64582 12.3309 7.4375 12.3668V7.57818L9.4799 6.39512ZM9.07586 5.61211L6.99969 6.81334L2.30587 4.09703C2.47544 3.86903 2.67711 3.67695 2.88786 3.5584L4.22533 2.81453L9.07586 5.61211ZM6.5625 7.57528L1.90725 4.88126C1.85892 5.04338 1.83203 5.20429 1.83203 5.35508V8.65091C1.83203 9.29258 2.32786 10.1326 2.88786 10.4476L6.00285 12.1801C6.16083 12.2686 6.35445 12.3308 6.5625 12.3666V7.57528Z" />
</g>
<defs>
<clipPath id="clip0_111_93397">
<rect width="14" height="14"/>
</clipPath>
</defs>
</svg>
