<svg width="20" height="20" viewBox="0 0 20 20" xmlns="http://www.w3.org/2000/svg">
<path opacity="0.4" d="M14.1673 17.5H5.83398C4.16732 17.5 3.33398 16.6667 3.33398 15V4.99998C3.33398 3.33332 4.16732 2.49998 5.83398 2.49998H12.834C13.1673 2.49998 13.5007 2.66665 13.7507 2.83332L16.334 5.41665C16.5007 5.66665 16.6673 5.99998 16.6673 6.33332V15C16.6673 16.6667 15.834 17.5 14.1673 17.5Z" />
<path d="M12.9163 10.8333H7.08301C6.24967 10.8333 5.83301 11.25 5.83301 12.0833V16C5.83301 16.1667 5.91634 16.25 6.08301 16.25H13.9163C14.083 16.25 14.1663 16.1667 14.1663 16V12.0833C14.1663 11.25 13.7497 10.8333 12.9163 10.8333Z" />
<path d="M12.083 7.33327H7.91634C7.58301 7.33327 7.33301 6.99994 7.33301 6.66661C7.33301 6.33327 7.58301 5.99994 7.99967 5.99994H12.1663C12.4997 5.99994 12.833 6.24994 12.833 6.66661C12.833 7.08327 12.4163 7.33327 12.083 7.33327Z" />
</svg>
