<svg width="92" height="92" viewBox="0 0 92 92" xmlns="http://www.w3.org/2000/svg">
<path d="M46 91.8337C20.6875 91.8337 0.166626 71.3128 0.166626 46.0003C0.166626 20.6878 20.6875 0.166992 46 0.166992C71.3125 0.166992 91.8333 20.6878 91.8333 46.0003C91.8333 71.3128 71.3125 91.8337 46 91.8337ZM41.075 59.9878L26.3333 45.2503C25.7409 44.6983 24.9574 44.3978 24.1478 44.4121C23.3382 44.4264 22.5658 44.7543 21.9932 45.3269C21.4206 45.8995 21.0927 46.6719 21.0784 47.4815C21.0641 48.2911 21.3646 49.0746 21.9166 49.667L38.9791 66.7337C38.9902 66.7449 39.0013 66.756 39.0125 66.767L39.0375 66.7878C39.3731 67.1234 39.7808 67.378 40.2296 67.5325C40.6784 67.687 41.1564 67.7372 41.6275 67.6794C42.0986 67.6215 42.5503 67.4572 42.9484 67.1987C43.3464 66.9403 43.6804 66.5946 43.925 66.1878L76.8791 29.117C77.4294 28.497 77.711 27.6839 77.6617 26.8564C77.6125 26.0289 77.2366 25.2548 76.6166 24.7045C75.9967 24.1542 75.1835 23.8727 74.356 23.9219C73.5285 23.9711 72.7544 24.347 72.2041 24.967L41.075 59.9878Z" />
</svg>
