<svg width="14" height="14" viewBox="0 0 14 14" xmlns="http://www.w3.org/2000/svg">
<path d="M5.83885 3.01035C6.6199 3.7914 6.6199 5.05773 5.83885 5.83877C5.0578 6.61982 3.79147 6.61982 3.01042 5.83877C2.22937 5.05773 2.22937 3.7914 3.01042 3.01035C3.79147 2.2293 5.0578 2.2293 5.83885 3.01035ZM5.13174 3.71745C4.74122 3.32693 4.10805 3.32693 3.71753 3.71745C3.32701 4.10798 3.32701 4.74114 3.71753 5.13167C4.10805 5.52219 4.74122 5.52219 5.13174 5.13167C5.52227 4.74114 5.52227 4.10798 5.13174 3.71745Z" />
<path fill-rule="evenodd" clip-rule="evenodd" d="M0 5.94985L1.82748e-05 0L5.94975 9.58396e-05C6.21497 0.000100223 6.46931 0.105457 6.65685 0.292989L12.7903 6.42646C13.1808 6.81698 13.1808 7.45014 12.7903 7.84067L7.84057 12.7904C7.45004 13.1809 6.81688 13.1809 6.42635 12.7904L0.292893 6.65696C0.105356 6.46942 -1.05893e-06 6.21507 0 5.94985ZM5.94974 1.0001L12.0832 7.13356L7.13346 12.0833L1 5.94985L1.00002 1.00002L5.94974 1.0001Z" />
</svg>
