<svg width="25" height="24" viewBox="0 0 25 24" xmlns="http://www.w3.org/2000/svg">
<path opacity="0.4" d="M8.69019 18.069L8.6872 18.067C7.7552 17.527 6.60518 17.525 5.67218 18.063C5.51318 18.155 5.3092 18.1 5.2172 17.942L3.5452 15.057C3.4532 14.898 3.50717 14.695 3.66617 14.603L3.67517 14.598C4.60317 14.06 5.17418 13.067 5.17118 11.995C5.16818 10.924 4.5972 9.93596 3.6702 9.39896L3.66519 9.39597C3.50719 9.30397 3.45319 9.10198 3.54419 8.94498L5.2172 6.05698C5.3092 5.89898 5.5112 5.84497 5.6702 5.93597C6.6042 6.47397 7.7542 6.47298 8.6872 5.93198L8.69019 5.93097C9.61519 5.39497 10.1852 4.40598 10.1852 3.33698C10.1852 3.15098 10.3362 3.00098 10.5222 3.00098H14.4772C14.6632 3.00098 14.8142 3.15198 14.8142 3.33698C14.8142 4.40598 15.3842 5.39497 16.3092 5.93097L16.3122 5.93198C17.2452 6.47298 18.3952 6.47397 19.3292 5.93597C19.4882 5.84497 19.6902 5.89898 19.7822 6.05698L21.4542 8.94296C21.5462 9.10196 21.4922 9.30497 21.3332 9.39697L21.3252 9.40097C20.3982 9.93797 19.8272 10.93 19.8292 12.001C19.8312 13.073 20.4022 14.064 21.3302 14.602L21.3342 14.604C21.4922 14.696 21.5462 14.898 21.4542 15.055L19.7812 17.943C19.6892 18.101 19.4872 18.155 19.3282 18.064C18.3942 17.526 17.2432 17.527 16.3112 18.068L16.3092 18.069C15.3832 18.606 14.8142 19.594 14.8142 20.664C14.8142 20.849 14.6632 20.999 14.4782 20.999H10.5192C10.3332 20.999 10.1822 20.849 10.1832 20.663C10.1842 19.595 9.61519 18.606 8.69019 18.069Z" />
<path d="M12.501 15C14.1578 15 15.501 13.6569 15.501 12C15.501 10.3431 14.1578 9 12.501 9C10.8441 9 9.50098 10.3431 9.50098 12C9.50098 13.6569 10.8441 15 12.501 15Z" />
</svg>
