<svg width="25" height="24" viewBox="0 0 25 24" xmlns="http://www.w3.org/2000/svg">
<path d="M20.4598 15.2101L15.6998 19.98C14.3298 21.34 12.9199 21.34 11.5599 19.98L10.0698 18.48L18.9698 9.58008L20.4598 11.0701C21.8698 12.4801 21.8198 13.8401 20.4598 15.2101Z" />
<path opacity="0.4" d="M18.97 9.58002L10.0699 18.48L4.35999 12.77C3.80999 12.22 3.5 11.47 3.5 10.7V4.95001C3.5 3.87001 4.36995 3 5.44995 3H11.1899C11.9599 3 12.71 3.30999 13.26 3.85999L18.97 9.58002Z" />
<path d="M7.50195 8C6.95195 8 6.5 7.552 6.5 7C6.5 6.448 6.94204 6 7.49304 6H7.50305C8.05405 6 8.50098 6.448 8.50098 7C8.50098 7.552 8.05395 8 7.50195 8Z" />
</svg>
