<svg width="20" height="20" viewBox="0 0 20 20" xmlns="http://www.w3.org/2000/svg">
<path d="M15.9016 2.34058H15.8361V3.31548C15.8361 4.04665 15.1803 4.7169 14.3279 4.7169H5.67213C4.88525 4.7169 4.16393 4.10758 4.16393 3.31548V2.34058H4.09836C2.91803 2.34058 2 3.25455 2 4.29038V16.0501C2 17.1469 2.98361 17.9999 4.09836 17.9999H15.9016C17.082 17.9999 18 17.086 18 16.0501V4.35131C18 3.25455 17.082 2.34058 15.9016 2.34058ZM11.0492 11.8459H5.73771C5.40984 11.8459 5.21311 11.6021 5.21311 11.3584C5.21311 11.0538 5.47541 10.871 5.73771 10.871H11.0492C11.3771 10.871 11.5738 11.1147 11.5738 11.3584C11.5738 11.6021 11.3115 11.8459 11.0492 11.8459ZM14.1967 9.46954H5.73771C5.40984 9.46954 5.21311 9.22581 5.21311 8.98209C5.21311 8.67743 5.47541 8.49464 5.73771 8.49464H14.1967C14.5246 8.49464 14.7213 8.73836 14.7213 8.98209C14.7213 9.22581 14.5246 9.46954 14.1967 9.46954Z" />
<path d="M6.06547 3.74191H13.9343C14.3933 3.74191 14.7868 3.37632 14.7868 2.9498V1.79211C14.7868 1.36559 14.3933 1 13.9343 1H6.06547C5.60646 1 5.21301 1.36559 5.21301 1.79211V2.9498C5.21301 3.37632 5.60646 3.74191 6.06547 3.74191Z" />
</svg>
