<svg width="25" height="24" viewBox="0 0 25 24" xmlns="http://www.w3.org/2000/svg">
<path opacity="0.4" d="M16.5 5H17.5C19.5 5 20.5 6 20.5 8V18C20.5 20 19.5 21 17.5 21H7.5C5.5 21 4.5 20 4.5 18V8C4.5 6 5.5 5 7.5 5H8.5" />
<path d="M16.5 4.5V5.5C16.5 6.5 16 7 15 7H10C9 7 8.5 6.5 8.5 5.5V4.5C8.5 3.5 9 3 10 3H15C16 3 16.5 3.5 16.5 4.5Z" />
<path d="M16.9998 12.7499H12.9998C12.5858 12.7499 12.2498 12.4139 12.2498 11.9999C12.2498 11.5859 12.5858 11.2499 12.9998 11.2499H16.9998C17.4138 11.2499 17.7498 11.5859 17.7498 11.9999C17.7498 12.4139 17.4138 12.7499 16.9998 12.7499ZM17.7498 15.9999C17.7498 15.5859 17.4138 15.2499 16.9998 15.2499H12.9998C12.5858 15.2499 12.2498 15.5859 12.2498 15.9999C12.2498 16.4139 12.5858 16.7499 12.9998 16.7499H16.9998C17.4138 16.7499 17.7498 16.4139 17.7498 15.9999ZM9.1968 13.1969L10.5298 11.8639C10.8228 11.5709 10.8228 11.0959 10.5298 10.8029C10.2368 10.5109 9.76177 10.5099 9.46877 10.8029L8.66579 11.6059L8.52883 11.4689C8.23583 11.1769 7.7608 11.1759 7.4678 11.4689C7.1748 11.7619 7.1748 12.2369 7.4678 12.5299L8.13479 13.1969C8.27579 13.3379 8.46582 13.4159 8.66482 13.4159C8.86382 13.4159 9.0568 13.3379 9.1968 13.1969ZM9.1968 17.1969L10.5298 15.8639C10.8228 15.5709 10.8228 15.0959 10.5298 14.8029C10.2368 14.5109 9.76177 14.5099 9.46877 14.8029L8.66579 15.6059L8.52883 15.4689C8.23583 15.1769 7.7608 15.1759 7.4678 15.4689C7.1748 15.7619 7.1748 16.2369 7.4678 16.5299L8.13479 17.1969C8.27579 17.3379 8.46582 17.4159 8.66482 17.4159C8.86382 17.4159 9.0568 17.3379 9.1968 17.1969Z" />
</svg>
