<svg t="1705301001838" class="icon" viewBox="0 0 1066 1024" version="1.1" xmlns="http://www.w3.org/2000/svg" p-id="14835" width="200" height="200"><path d="M882.773333 750.506667l-281.173333 130.56c-43.093333 20.053333-93.44 20.053333-136.533333 0l-281.173334-130.56c-46.08-21.333333-46.08-87.04 0-108.373334l5.973334-2.56 248.32 114.773334c29.866667 14.08 61.866667 21.333333 95.146666 21.333333s65.28-7.253333 95.146667-21.333333l248.32-114.773334 5.973333 2.56c46.08 21.333333 46.08 87.04 0 108.373334z" opacity=".4" p-id="14836"></path><path d="M882.773333 566.186667l-81.92 37.973333-199.253333 92.16a159.402667 159.402667 0 0 1-136.533333 0l-199.253334-92.16-81.92-37.973333c-46.08-21.333333-46.08-87.04 0-108.8l5.546667-2.56 198.826667 92.586666 49.92 23.04a227.498667 227.498667 0 0 0 190.293333 0l49.92-23.04 198.826667-92.586666 5.546666 2.56c46.08 21.76 46.08 87.466667 0 108.8z" opacity=".4" p-id="14837"></path><path d="M882.773333 381.866667l-5.546666 2.56-37.973334 17.493333-37.973333 17.92-199.68 92.586667c-21.76 9.813333-44.8 14.933333-68.266667 14.933333s-46.506667-5.12-68.266666-14.933333L265.386667 419.84l-37.973334-17.92-37.973333-17.493333-5.546667-2.56c-46.08-21.333333-46.08-87.04 0-108.373334l281.173334-130.56c21.76-9.813333 44.8-14.933333 68.266666-14.933333s46.506667 5.12 68.266667 14.933333l281.173333 130.56c46.08 21.333333 46.08 87.04 0 108.373334z" p-id="14838"></path></svg>