<svg width="24" height="26" viewBox="0 0 24 26" xmlns="http://www.w3.org/2000/svg">
<path d="M16.0281 6.84256V1.18736C16.0281 0.531264 15.4563 0 14.75 0H1.25312C0.559375 0 0 0.522555 0 1.16414V24.8359C0 25.4803 0.5625 26 1.25312 26H22.7469C23.4406 26 24 25.4774 24 24.8359V8.61635C24 7.96315 23.4313 7.43479 22.7281 7.43479H16.6656C16.3125 7.43479 16.0281 7.17061 16.0281 6.84256ZM19.9688 21.3318C19.9688 21.8283 19.5313 22.2347 18.9969 22.2347H4.99375C4.45937 22.2347 4.02187 21.8283 4.02187 21.3318C4.02187 20.8354 4.45937 20.429 4.99375 20.429H19C19.5344 20.429 19.9688 20.8354 19.9688 21.3318ZM19.9688 16.6695C19.9688 17.1659 19.5313 17.5724 18.9969 17.5724H4.99375C4.45937 17.5724 4.02187 17.1659 4.02187 16.6695C4.02187 16.1731 4.45937 15.7666 4.99375 15.7666H19C19.5344 15.7695 19.9688 16.1731 19.9688 16.6695ZM19.9688 12.0536C19.9688 12.55 19.5313 12.9565 18.9969 12.9565H4.99375C4.45937 12.9565 4.02187 12.55 4.02187 12.0536C4.02187 11.5572 4.45937 11.1507 4.99375 11.1507H19C19.5344 11.1507 19.9688 11.5572 19.9688 12.0536Z" />
<path d="M18.2047 0.775024L23.111 5.33286C23.4203 5.62027 23.2016 6.11379 22.7641 6.11379H17.8578C17.5859 6.11379 17.3672 5.91058 17.3672 5.65801V1.10017C17.3641 0.693738 17.8953 0.487619 18.2047 0.775024Z" />
</svg>
