<svg width="20" height="20" viewBox="0 0 20 20" xmlns="http://www.w3.org/2000/svg">
<g clip-path="url(#clip0_2159_158152)">
<path d="M0 0H16C18.2 0 20 1.8 20 4V20H16C7.2 20 0 12.8 0 4V0Z"/>
<path d="M10.1998 10.9L15.8998 4.9C16.2998 4.5 16.8998 4.5 17.2998 4.9C17.6998 5.3 17.6998 5.9 17.2998 6.3L10.7998 13C10.3998 13.4 9.79978 13.4 9.39978 13L9.29978 12.9L5.79978 8.6C5.49978 8.2 5.49978 7.6 5.89978 7.2C6.29978 6.9 6.89978 6.9 7.29978 7.3L10.1998 10.9Z" fill="white"/>
</g>
<defs>
<clipPath id="clip0_2159_158152">
<rect width="20" height="20" fill="white"/>
</clipPath>
</defs>
</svg>
