<svg width="14" height="13" viewBox="0 0 14 13" xmlns="http://www.w3.org/2000/svg">
<path d="M12.6 0C12.9713 0 13.3274 0.1475 13.5899 0.410051C13.8525 0.672601 14 1.0287 14 1.4V10.7333C14 11.1046 13.8525 11.4607 13.5899 11.7233C13.3274 11.9858 12.9713 12.1333 12.6 12.1333H1.4C1.0287 12.1333 0.672601 11.9858 0.410051 11.7233C0.1475 11.4607 0 11.1046 0 10.7333V1.4C0 1.0287 0.1475 0.672601 0.410051 0.410051C0.672601 0.1475 1.0287 0 1.4 0H12.6ZM12.6 0.933333H1.4C1.27623 0.933333 1.15753 0.9825 1.07002 1.07002C0.9825 1.15753 0.933333 1.27623 0.933333 1.4V10.7333C0.933333 10.8571 0.9825 10.9758 1.07002 11.0633C1.15753 11.1508 1.27623 11.2 1.4 11.2H12.6C12.7238 11.2 12.8425 11.1508 12.93 11.0633C13.0175 10.9758 13.0667 10.8571 13.0667 10.7333V1.4C13.0667 1.27623 13.0175 1.15753 12.93 1.07002C12.8425 0.9825 12.7238 0.933333 12.6 0.933333ZM7.168 7.11947C7.308 7.11947 7.42933 7.16707 7.53387 7.2632C7.584 7.30714 7.62398 7.36144 7.65106 7.42236C7.67813 7.48327 7.69165 7.54935 7.69067 7.616C7.69132 7.6833 7.67796 7.75 7.65145 7.81186C7.62494 7.87372 7.58585 7.92939 7.53667 7.97533C7.48848 8.02388 7.43099 8.06221 7.36765 8.08803C7.3043 8.11385 7.2364 8.12663 7.168 8.1256C7.09979 8.1258 7.03223 8.11247 6.9692 8.0864C6.90785 8.06155 6.85131 8.02617 6.80213 7.98187C6.75325 7.93692 6.71411 7.88241 6.68714 7.82173C6.66017 7.76105 6.64594 7.69547 6.64533 7.62907C6.64468 7.56177 6.65804 7.49507 6.68455 7.43321C6.71106 7.37135 6.75015 7.31568 6.79933 7.26973C6.84752 7.22118 6.90501 7.18285 6.96836 7.15703C7.0317 7.13122 7.0996 7.11844 7.168 7.11947ZM4.86827 3.4608V8.0864H4.08427V4.3624L3.21533 5.166L2.758 4.62373L4.15613 3.4608H4.86827ZM10.6699 3.4608V8.0864H9.88587V4.3624L9.01693 5.166L8.5596 4.62373L9.95773 3.4608H10.6699ZM7.168 4.90467C7.308 4.90467 7.42933 4.95227 7.53387 5.0484C7.584 5.09234 7.62398 5.14664 7.65106 5.20756C7.67813 5.26848 7.69165 5.33455 7.69067 5.4012C7.69132 5.4685 7.67796 5.5352 7.65145 5.59706C7.62494 5.65892 7.58585 5.71459 7.53667 5.76053C7.48848 5.80908 7.43099 5.84741 7.36765 5.87323C7.3043 5.89905 7.2364 5.91183 7.168 5.9108C7.09979 5.911 7.03223 5.89767 6.9692 5.8716C6.90785 5.84675 6.85131 5.81137 6.80213 5.76707C6.75325 5.72212 6.71411 5.66761 6.68714 5.60693C6.66017 5.54625 6.64594 5.48067 6.64533 5.41427C6.64468 5.34697 6.65804 5.28027 6.68455 5.21841C6.71106 5.15655 6.75015 5.10088 6.79933 5.05493C6.84752 5.00638 6.90501 4.96805 6.96836 4.94223C7.0317 4.91641 7.0996 4.90364 7.168 4.90467Z" />
</svg>
