<svg width="24" height="24" viewBox="0 0 24 24" xmlns="http://www.w3.org/2000/svg">
<path opacity="0.4" d="M21.9997 13C21.9997 15.76 19.7597 18 16.9997 18C16.9997 18 10.4598 18 10.2988 18C10.1378 18 9.99972 17.878 9.99972 17.7C9.99972 17.522 9.99972 15.57 9.99972 15.57C9.99972 14.55 9.63972 13.72 8.99972 13.19V12.75C8.99972 10.575 7.2667 8.80698 5.1047 8.75098C4.8347 8.74898 4.75281 8.47602 4.84981 8.29602C5.95681 6.32502 8.06874 5 10.4987 5C12.1487 5 13.6488 5.61 14.7888 6.62C15.2688 7.05 15.6888 7.54003 16.0288 8.09003C16.3488 8.03003 16.6687 8 16.9987 8C19.7597 8 21.9997 10.24 21.9997 13Z" />
<path d="M7.5 14.075V12.75C7.5 11.372 6.379 10.25 5 10.25C3.621 10.25 2.5 11.372 2.5 12.75V14.075C1.845 14.237 1.5 14.724 1.5 15.572V17.929C1.5 18.976 2 19.5 3 19.5H7C8 19.5 8.5 18.976 8.5 17.929V15.572C8.5 14.723 8.155 14.236 7.5 14.075ZM5 11.75C5.552 11.75 6 12.198 6 12.75V14H4V12.75C4 12.198 4.448 11.75 5 11.75Z" />
</svg>
