<svg width="24" height="24" viewBox="0 0 24 24" xmlns="http://www.w3.org/2000/svg">
<path d="M4 8H20C20.667 8 21 7.667 21 7V5C21 4.333 20.667 4 20 4H4C3.333 4 3 4.333 3 5V7C3 7.667 3.333 8 4 8Z" />
<path opacity="0.4" d="M21 19.251H19V8H5V19.251H3C2.586 19.251 2.25 19.587 2.25 20.001C2.25 20.415 2.586 20.751 3 20.751H9C9.414 20.751 9.75 20.415 9.75 20.001V15.001C9.75 13.76 10.76 12.751 12 12.751C13.24 12.751 14.25 13.76 14.25 15.001V20.001C14.25 20.415 14.586 20.751 15 20.751H21C21.414 20.751 21.75 20.415 21.75 20.001C21.75 19.587 21.414 19.251 21 19.251Z" />
</svg>
