<svg width="25" height="24" viewBox="0 0 25 24" xmlns="http://www.w3.org/2000/svg">
<path d="M16.5 8H19.5L13.5 2V5C13.5 7 14.5 8 16.5 8Z" />
<path opacity="0.4" fill-rule="evenodd" clip-rule="evenodd" d="M13.5 5C13.5 7 14.5 8 16.5 8H19.5V12.689C19.0206 12.5656 18.5179 12.5 18 12.5C14.6863 12.5 12 15.1863 12 18.5C12 19.8062 12.4174 21.0149 13.126 22H7.5C5.5 22 4.5 21 4.5 19V5C4.5 3 5.5 2 7.5 2H13.5V5Z" />
<path fill-rule="evenodd" clip-rule="evenodd" d="M8.5 11.75C8.914 11.75 9.25 11.414 9.25 11C9.25 10.586 8.914 10.25 8.5 10.25C8.086 10.25 7.75 10.586 7.75 11C7.75 11.414 8.086 11.75 8.5 11.75ZM7.75 15C7.75 14.586 8.086 14.25 8.5 14.25C8.914 14.25 9.25 14.586 9.25 15C9.25 15.414 8.914 15.75 8.5 15.75C8.086 15.75 7.75 15.414 7.75 15ZM15.5 10.25C15.914 10.25 16.25 10.586 16.25 11C16.25 11.414 15.914 11.75 15.5 11.75H11C10.586 11.75 10.25 11.414 10.25 11C10.25 10.586 10.586 10.25 11 10.25H15.5ZM13.7647 14.25H11C10.586 14.25 10.25 14.586 10.25 15C10.25 15.414 10.586 15.75 11 15.75H12.6659C12.9533 15.1936 13.3253 14.6879 13.7647 14.25Z" />
<path d="M20.6801 18C20.6801 17.52 20.94 17.08 21.37 16.84L21.5 16.77L20.58 15.23L20.45 15.3C20.24 15.42 20 15.48 19.76 15.48C19.52 15.48 19.2799 15.42 19.0699 15.3C18.6499 15.06 18.39 14.62 18.39 14.15C18.39 14.07 18.32 14 18.23 14H16.71C16.62 14 16.5601 14.07 16.5601 14.15C16.5601 14.62 16.3 15.06 15.87 15.3C15.66 15.42 15.4201 15.48 15.1801 15.48C14.9401 15.48 14.7 15.42 14.49 15.3C14.42 15.26 14.33 15.29 14.29 15.36L13.52 16.64C13.51 16.66 13.5 16.69 13.5 16.71C13.5 16.76 13.53 16.81 13.58 16.84C14 17.08 14.26 17.52 14.26 18V18.03C14.26 18.49 13.99 18.92 13.58 19.16C13.5 19.2 13.48 19.29 13.52 19.36L14.28 20.64C14.31 20.69 14.37 20.72 14.42 20.72C14.45 20.72 14.47 20.71 14.49 20.7C14.92 20.46 15.45 20.46 15.87 20.7C16.28 20.94 16.55 21.3599 16.55 21.8199V21.85C16.55 21.93 16.62 22 16.71 22H18.24C18.32 22 18.39 21.93 18.39 21.85C18.39 21.38 18.6499 20.94 19.0699 20.7C19.2799 20.58 19.52 20.52 19.76 20.52C20 20.52 20.24 20.58 20.45 20.7C20.52 20.74 20.62 20.71 20.66 20.64L21.42 19.36C21.44 19.34 21.4399 19.31 21.4399 19.28C21.4399 19.23 21.42 19.19 21.37 19.16C20.94 18.92 20.6801 18.48 20.6801 18ZM17.52 19.14C16.89 19.14 16.37 18.63 16.37 18C16.37 17.37 16.88 16.86 17.51 16.86H17.52C18.15 16.86 18.67 17.37 18.67 18C18.67 18.63 18.15 19.14 17.52 19.14Z" />
</svg>
