<svg width="18" height="18" viewBox="0 0 18 18" xmlns="http://www.w3.org/2000/svg">
<path d="M10.125 7.87501H4.5V6.75001H10.125V7.87501Z" />
<path d="M10.6999 11.4954C9.77902 12.2414 8.60596 12.6882 7.32853 12.6882C4.3684 12.6882 1.96875 10.2886 1.96875 7.3285C1.96875 4.36839 4.3684 1.96875 7.32853 1.96875C10.2887 1.96875 12.6883 4.36839 12.6883 7.3285C12.6883 8.60595 12.2414 9.77902 11.4954 10.6999L15.4681 14.6726L14.6726 15.4681L10.6999 11.4954ZM11.5633 7.3285C11.5633 4.98972 9.66734 3.09375 7.32853 3.09375C4.98972 3.09375 3.09375 4.98972 3.09375 7.3285C3.09375 9.66728 4.98972 11.5632 7.32853 11.5632C9.66734 11.5632 11.5633 9.66728 11.5633 7.3285Z" />
</svg>
