<?xml version="1.0" encoding="UTF-8"?>
<svg width="44px" height="44px" viewBox="0 0 44 44" version="1.1" xmlns="http://www.w3.org/2000/svg" xmlns:xlink="http://www.w3.org/1999/xlink">
    <title>编组 15备份 5</title>
    <g id="页面-1" stroke="none" stroke-width="1" fill="none" fill-rule="evenodd">
        <g id="编组-15备份-3">
            <rect id="矩形" x="0" y="0" width="44" height="44"></rect>
            <g id="编组-13" transform="translate(1.000000, 8.000000)">
                <g id="编组-12">
                    <path d="M13.654135,6.54846165 L15.275277,7.78549338 L12.956277,10.4224934 L11.5348724,9.33788355 C9.93722118,8.11852903 7.70092961,8.20849293 6.18715824,9.54104958 L6.11780986,9.60343427 L5.75118586,9.94044661 C5.06437101,10.571787 4.55565917,11.3739209 4.277181,12.2646494 C3.40975129,15.039173 4.9407249,17.9776666 7.69670626,18.8279586 L7.81006214,18.8616791 L7.93148794,18.8958707 C9.22077309,19.2440705 10.6112152,19.2146282 12.1646343,18.7793192 L15.1584987,17.9403594 L16.344628,20.9143311 C17.158745,22.9121094 19.2426905,24.0745649 21.3732952,23.7161142 L21.6262715,23.6735538 C22.8976778,23.4596538 24.0631962,22.9154581 25.0266361,22.1258637 L27.6705703,24.4329164 C26.1616088,25.8166088 24.2653208,26.769977 22.1760802,27.1214686 L21.9231039,27.164029 C18.1905749,27.7919857 14.5456929,25.7538116 13.1217186,22.2594921 L13.0765569,22.1462685 C10.8642468,22.7662162 8.77563193,22.7902138 6.81071238,22.2182614 L6.65166564,22.1705809 C2.06194238,20.7545318 -0.487692125,15.8608584 0.956897583,11.2402555 C1.42066632,9.75686461 2.26785971,8.42101401 3.4116625,7.36959689 L3.77828339,7.03258739 C6.53874915,4.49508013 10.6966451,4.29125523 13.654135,6.54846165 Z" id="形状结合" fill="#FFFFFF" fill-rule="nonzero" opacity="0.627627418" transform="translate(14.127075, 16.128700) rotate(-3.000000) translate(-14.127075, -16.128700) "></path>
                    <path d="M27.6423411,2.02682402 C28.7076095,2.87506148 29.5714336,3.94957571 30.1730902,5.17347957 L30.2440267,5.32106018 L31.610581,5.00293048 C35.47949,4.10226021 39.437716,5.98396484 41.1756298,9.55006766 C42.8999121,13.0881995 41.8908295,17.3756424 38.7639771,19.7968231 L38.3550323,20.1134769 C35.8729765,22.0353794 32.6922114,22.5781901 29.8293719,21.7347452 L31.3010257,19.5980357 L31.9885821,18.5993773 C33.4385232,18.7302412 34.9288674,18.3342944 36.1601355,17.413647 L36.242828,17.3507228 L36.6517728,17.0340691 C38.4341118,15.6539705 39.0270518,13.2257265 38.0899417,11.1967141 L38.0469578,11.1061344 C37.0158895,8.99043922 34.6675557,7.87406272 32.3722119,8.40841179 L28.3062933,9.3549453 L27.0479466,6.7366709 L26.9854117,6.61351014 C26.6348121,5.94241958 26.1563921,5.34751195 25.5770442,4.8623813 L25.4672403,4.77271396 C22.9628535,2.77855483 19.3077165,3.21331332 17.3032635,5.74377422 L16.8063558,6.369 L14.0553558,4.248 L14.5856674,3.57984374 C17.7913954,-0.467130304 23.6370673,-1.16244092 27.6423411,2.02682402 Z" id="形状结合" fill="#FFFFFF" fill-rule="nonzero"></path>
                    <rect id="矩形" fill="#37FFBB" x="27.7181098" y="17.3397739" width="4.78918045" height="4.83211351" rx="2.39459022"></rect>
                </g>
                <g id="IDEAL" transform="translate(11.737648, 12.222405)" fill="#FFFFFF" fill-rule="nonzero">
                    <path d="M0,3.55302464 L0,3.55302464 L0.521841118,0.327845411 C0.537512023,0.232223833 0.586875372,0.153677536 0.669931165,0.0922065217 C0.752986959,0.0307355072 0.849363021,0 0.959059352,0 L1.45269284,0 C1.45269284,0 1.45269284,0 1.45269284,0 C1.45269284,0 1.45269284,0 1.45269284,0 L0.940254267,3.16780628 C0.921449182,3.27982013 0.86425038,3.37202665 0.768657863,3.44442585 C0.673065346,3.51682504 0.561018379,3.55302464 0.432516963,3.55302464 L0,3.55302464 Z" id="路径"></path>
                    <path d="M3.12388428,0.390216579 L3.12388428,0.390216579 L2.61484712,3.55302464 L4.73662819,3.55302464 C5.28848157,3.55302464 5.74994517,3.38050783 6.12101899,3.03547423 C6.49526438,2.68770226 6.68238708,2.25230271 6.68238708,1.72927558 C6.68238708,1.21994025 6.50002174,0.803709234 6.13529106,0.480582523 C5.77056038,0.160194174 5.24407957,0 4.55584864,0 L3.64243616,0 C3.51240174,0 3.39901808,0.0362832959 3.30228516,0.108849888 C3.20555224,0.18141648 3.14608528,0.275205377 3.12388428,0.390216579 Z M3.96593641,0.595593725 L3.96593641,0.595593725 L4.38934116,0.595593725 C4.81433169,0.595593725 5.15210401,0.69965148 5.40265813,0.907766988 C5.65321225,1.1158825 5.77848931,1.38698033 5.77848931,1.72106049 C5.77848931,2.08252427 5.65638382,2.37963654 5.41217284,2.61239731 C5.17113344,2.84515807 4.83653269,2.96153846 4.40837058,2.96153846 L3.58534788,2.96153846 L3.96593641,0.595593725 Z" id="形状"></path>
                    <path d="M7.48136814,3.55302464 L7.48136814,3.55302464 L7.9852472,0.487670048 C8.01059961,0.345603704 8.08428004,0.228808776 8.20628849,0.137285266 C8.32829694,0.0457617552 8.47169648,0 8.63648712,0 L11.1131002,0 L11.0703181,0.258178261 C11.0576419,0.329211433 11.0211978,0.387267391 10.9609858,0.432346135 C10.9007738,0.477424879 10.8310547,0.499964251 10.7518285,0.499964251 L8.87416592,0.499964251 L8.72680507,1.4179314 L10.6424962,1.4179314 L10.5474247,1.999857 L8.63173354,1.999857 L8.45585123,2.9751971 L10.6282355,2.9751971 L10.6044676,3.17600242 C10.5854533,3.28528422 10.5299949,3.37544171 10.4380924,3.44647488 C10.34619,3.51750805 10.2384423,3.55302464 10.1148493,3.55302464 L7.48136814,3.55302464 Z" id="路径"></path>
                    <path d="M12.5459557,2.81366691 L12.5459557,2.81366691 L12.3073205,3.26138909 C12.1800484,3.45581279 12.0018674,3.55302464 11.7727776,3.55302464 L11.1857349,3.55302464 C11.1857349,3.55302464 11.2525528,3.43869803 11.3861885,3.2100448 C11.5198242,2.98139158 11.6844825,2.6993403 11.8801634,2.36389096 C12.0758443,2.02844162 12.2739116,1.68888474 12.4743651,1.34522031 C12.6748187,1.00155589 12.848227,0.705128204 12.99459,0.455937266 C13.2014072,0.151979089 13.4861785,0 13.8489041,0 L14.3070837,0 C14.3102655,0.0109534478 14.3436745,0.132810555 14.4073105,0.365571321 C14.4709466,0.598332087 14.5496962,0.887229274 14.6435594,1.23226288 C14.7374226,1.57729649 14.8320813,1.92369927 14.9275353,2.27147124 C15.0229894,2.61924321 15.1041254,2.91361712 15.1709433,3.15459297 C15.1963977,3.25865073 15.1717387,3.35107044 15.0969664,3.43185212 C15.022194,3.5126338 14.9243535,3.55302464 14.803445,3.55302464 L14.3118564,3.55302464 L14.1495845,2.81366691 L12.5459557,2.81366691 Z M13.6914048,0.657206869 L13.6914048,0.657206869 L12.832318,2.23450336 L14.0398123,2.23450336 L13.6961775,0.657206869 L13.6914048,0.657206869 Z" id="形状"></path>
                    <path d="M16.9766596,2.94790652 L16.9766596,2.94790652 L18.667103,2.94790652 L18.5129885,3.55302464 L16.2735122,3.55302464 C16.1996657,3.55302464 16.1418727,3.53394434 16.1001334,3.49578373 C16.058394,3.46034889 16.0439458,3.40174511 16.0567887,3.31997239 L16.5528447,0.290293152 C16.5688983,0.205794676 16.6130457,0.136287865 16.6852869,0.0817727189 C16.7575281,0.027257573 16.8434148,0 16.9429471,0 L17.4582674,0 L16.9766596,2.94790652 Z" id="路径"></path>
                </g>
            </g>
        </g>
    </g>
</svg>